<svg width="24" height="25" viewBox="0 0 24 25" fill="none" xmlns="http://www.w3.org/2000/svg">
<path d="M18.0002 6.94873C17.3902 6.94873 16.8302 6.59873 16.5502 6.05873L15.8302 4.60873C15.3702 3.69873 14.1702 2.94873 13.1502 2.94873H10.8602C9.83017 2.94873 8.63017 3.69873 8.17017 4.60873L7.45017 6.05873C7.17017 6.59873 6.61017 6.94873 6.00017 6.94873C3.83017 6.94873 2.11017 8.77873 2.25017 10.9387L2.77017 19.1987C2.89017 21.2587 4.00017 22.9487 6.76017 22.9487H17.2402C20.0002 22.9487 21.1002 21.2587 21.2302 19.1987L21.7502 10.9387C21.8902 8.77873 20.1702 6.94873 18.0002 6.94873ZM10.5002 8.19873H13.5002C13.9102 8.19873 14.2502 8.53873 14.2502 8.94873C14.2502 9.35873 13.9102 9.69873 13.5002 9.69873H10.5002C10.0902 9.69873 9.75017 9.35873 9.75017 8.94873C9.75017 8.53873 10.0902 8.19873 10.5002 8.19873ZM12.0002 19.0687C10.1402 19.0687 8.62017 17.5587 8.62017 15.6887C8.62017 13.8187 10.1302 12.3087 12.0002 12.3087C13.8702 12.3087 15.3802 13.8187 15.3802 15.6887C15.3802 17.5587 13.8602 19.0687 12.0002 19.0687Z" fill="#FEFCFD"/>
</svg>
