<svg width="25" height="25" viewBox="0 0 25 25" fill="none" xmlns="http://www.w3.org/2000/svg">
<path d="M13.8848 16.3545V11.3745H21.7748C21.9786 11.3745 22.1348 11.5306 22.1348 11.7345C22.1348 14.5601 21.151 16.9286 19.49 18.5896C17.8289 20.2507 15.4604 21.2345 12.6348 21.2345C9.80914 21.2345 7.44059 20.2507 5.77957 18.5896C4.11855 16.9286 3.13477 14.5601 3.13477 11.7345C3.13477 11.5306 3.29091 11.3745 3.49477 11.3745H11.3848V16.3545C11.3848 17.0406 11.9486 17.6045 12.6348 17.6045C13.3209 17.6045 13.8848 17.0406 13.8848 16.3545Z" fill="white" stroke="#FEFCFD"/>
<path d="M13.7387 6.42087L13.5923 6.27442H13.3852H13.3752H12.8752V6.77442V10.3744H12.3752V6.78442V5.57731L11.5216 6.43087L9.9616 7.99087C9.86687 8.0856 9.70345 8.0856 9.60871 7.99087C9.55742 7.93957 9.53516 7.87897 9.53516 7.81442C9.53516 7.76575 9.55638 7.69672 9.61627 7.63039L12.4487 4.78797C12.4488 4.78789 12.4489 4.78781 12.4489 4.78774C12.5437 4.69323 12.7069 4.69331 12.8016 4.78797L12.8022 4.78859L15.6516 7.62797C15.6517 7.62805 15.6518 7.62814 15.6518 7.62822C15.7463 7.72299 15.7463 7.88621 15.6516 7.98087C15.5569 8.0756 15.3934 8.0756 15.2987 7.98087L13.7387 6.42087Z" fill="white" stroke="#FEFCFD"/>
</svg>
