<svg width="24" height="25" viewBox="0 0 24 25" fill="none" xmlns="http://www.w3.org/2000/svg">
<path d="M14 9.946V12.846H16.6C16.8 12.846 16.9 13.046 16.9 13.246L16.5 15.146C16.5 15.246 16.3 15.346 16.2 15.346H14V22.646H11V15.446H9.3C9.1 15.446 9 15.346 9 15.146V13.246C9 13.046 9.1 12.946 9.3 12.946H11V9.646C11 7.946 12.3 6.646 14 6.646H16.7C16.9 6.646 17 6.746 17 6.946V9.346C17 9.546 16.9 9.646 16.7 9.646H14.3C14.1 9.646 14 9.746 14 9.946Z" stroke="#17191C" stroke-width="1.5" stroke-miterlimit="10" stroke-linecap="round"/>
<path d="M15 22.646H9C4 22.646 2 20.646 2 15.646V9.646C2 4.646 4 2.646 9 2.646H15C20 2.646 22 4.646 22 9.646V15.646C22 20.646 20 22.646 15 22.646Z" stroke="#17191C" stroke-width="1.5" stroke-linecap="round" stroke-linejoin="round"/>
</svg>
