<svg width="28" height="26" viewBox="0 0 28 26" fill="none" xmlns="http://www.w3.org/2000/svg">
<path d="M20.668 0.23999H7.33464C3.33464 0.23999 0.667969 2.90666 0.667969 6.90666V14.9067C0.667969 18.9067 3.33464 21.5733 7.33464 21.5733V24.4133C7.33464 25.48 8.5213 26.12 9.4013 25.52L15.3346 21.5733H20.668C24.668 21.5733 27.3346 18.9067 27.3346 14.9067V6.90666C27.3346 2.90666 24.668 0.23999 20.668 0.23999ZM14.0013 16.4667C13.4413 16.4667 13.0013 16.0133 13.0013 15.4667C13.0013 14.92 13.4413 14.4667 14.0013 14.4667C14.5613 14.4667 15.0013 14.92 15.0013 15.4667C15.0013 16.0133 14.5613 16.4667 14.0013 16.4667ZM15.6813 10.9333C15.1613 11.28 15.0013 11.5067 15.0013 11.88V12.16C15.0013 12.7067 14.548 13.16 14.0013 13.16C13.4546 13.16 13.0013 12.7067 13.0013 12.16V11.88C13.0013 10.3333 14.1346 9.57332 14.5613 9.27999C15.0546 8.94666 15.2146 8.71999 15.2146 8.37332C15.2146 7.70666 14.668 7.15999 14.0013 7.15999C13.3346 7.15999 12.788 7.70666 12.788 8.37332C12.788 8.91999 12.3346 9.37332 11.788 9.37332C11.2413 9.37332 10.788 8.91999 10.788 8.37332C10.788 6.59999 12.228 5.15999 14.0013 5.15999C15.7746 5.15999 17.2146 6.59999 17.2146 8.37332C17.2146 9.89332 16.0946 10.6533 15.6813 10.9333Z" fill="#743F65"/>
</svg>
