<svg width="32" height="32" viewBox="0 0 32 32" fill="none" xmlns="http://www.w3.org/2000/svg">
<path d="M24.9196 15.3733C24.1596 15.1733 23.2662 15.0667 22.1996 15.0667C20.7196 15.0667 20.1729 15.4267 19.4129 16C19.3729 16.0267 19.3329 16.0667 19.2929 16.1067L18.0262 17.4533C16.9729 18.5867 15.0396 18.5867 13.9729 17.4533L12.7062 16.12C12.6662 16.0667 12.6262 16.0267 12.5862 16C11.8129 15.4267 11.2662 15.0667 9.79958 15.0667C8.73292 15.0667 7.83958 15.16 7.07958 15.3733C3.90625 16.2266 3.90625 18.7467 3.90625 20.96V22.2C3.90625 25.5466 3.90625 29.3333 11.0396 29.3333H20.9596C25.6929 29.3333 28.0929 26.9333 28.0929 22.2V20.96C28.0929 18.7467 28.0929 16.2266 24.9196 15.3733Z" fill="#743F65"/>
<path d="M19.7201 2.66675H12.2801C6.38672 2.66675 6.38672 5.80008 6.38672 8.56008V13.4934C6.44005 13.4667 6.50672 13.4534 6.56005 13.4401C7.49339 13.1867 8.54672 13.0667 9.80005 13.0667C11.8534 13.0667 12.8267 13.6667 13.7867 14.4001C13.9201 14.4934 14.0534 14.6134 14.1734 14.7467L15.4267 16.0667C15.5601 16.2134 15.7734 16.2934 16.0001 16.2934C16.2267 16.2934 16.4401 16.2134 16.5601 16.0801L17.8401 14.7334C17.9467 14.6267 18.0667 14.5067 18.2001 14.4134C19.1867 13.6667 20.1467 13.0667 22.2001 13.0667C23.4534 13.0667 24.5067 13.1867 25.4401 13.4401C25.4934 13.4534 25.5601 13.4667 25.6134 13.4934V8.56008C25.6134 5.80008 25.6134 2.66675 19.7201 2.66675ZM18.0667 11.3334H13.9334C13.4267 11.3334 13.0001 10.9067 13.0001 10.4001C13.0001 9.88008 13.4267 9.46675 13.9334 9.46675H18.0667C18.5734 9.46675 19.0001 9.88008 19.0001 10.4001C19.0001 10.9067 18.5734 11.3334 18.0667 11.3334ZM19.1067 7.61341H12.8934C12.3867 7.61341 11.9734 7.18675 11.9734 6.68008C11.9734 6.16008 12.3867 5.74675 12.8934 5.74675H19.1067C19.6134 5.74675 20.0267 6.16008 20.0267 6.68008C20.0267 7.18675 19.6134 7.61341 19.1067 7.61341Z" fill="#743F65"/>
</svg>
