<svg width="24" height="24" viewBox="0 0 24 24" fill="none" xmlns="http://www.w3.org/2000/svg">
<path d="M12.8203 2.73898L12.8224 2.74015L19.0909 6.11934C19.0912 6.11947 19.0914 6.1196 19.0916 6.11972C19.3826 6.27821 19.5697 6.58477 19.5697 6.96003C19.5697 7.33532 19.3826 7.64191 19.0915 7.80038C19.0913 7.80049 19.0911 7.80061 19.0909 7.80072L12.8224 11.1799L12.8203 11.1811C12.5655 11.32 12.2781 11.39 11.9997 11.39C11.7212 11.39 11.4338 11.32 11.1791 11.1811L11.1769 11.1799L4.90844 7.80072C4.90825 7.80061 4.90805 7.8005 4.90785 7.80039C4.61842 7.6428 4.42969 7.32728 4.42969 6.96003C4.42969 6.58477 4.61674 6.27819 4.90776 6.11971C4.90799 6.11959 4.90822 6.11947 4.90844 6.11934L11.1769 2.74015L11.1769 2.74016L11.1791 2.73898C11.6899 2.46038 12.3095 2.46038 12.8203 2.73898Z" fill="#9F959C" stroke="#999898"/>
<path d="M9.68639 13.2372L9.68639 13.2372L3.84859 10.3183C3.54845 10.1723 3.21255 10.189 2.94451 10.3543C2.65908 10.5341 2.5 10.8249 2.5 11.15V16.66C2.5 17.4203 2.92286 18.1079 3.60471 18.4533C3.60504 18.4535 3.60537 18.4537 3.6057 18.4538L9.43361 21.3728L9.68639 13.2372ZM9.68639 13.2372L9.68851 13.2383M9.68639 13.2372L9.68851 13.2383M9.68851 13.2383C10.3657 13.5729 10.788 14.2562 10.78 15.0248L10.78 15.0248V15.03V20.54C10.78 20.8711 10.6164 21.1658 10.3413 21.3321L10.34 21.3329M9.68851 13.2383L10.34 21.3329M10.34 21.3329C10.1901 21.4242 10.0204 21.47 9.85 21.47C9.70544 21.47 9.56238 21.4371 9.43391 21.3729L10.34 21.3329Z" fill="#9F959C" stroke="#999898"/>
<path d="M20.1527 10.317L20.1527 10.317L14.3245 13.2361C14.3242 13.2362 14.3239 13.2363 14.3236 13.2365C13.6407 13.5824 13.2188 14.2606 13.2188 15.0299V20.5399C13.2188 20.871 13.3824 21.1657 13.6575 21.332L13.6587 21.3328C13.8086 21.4241 13.9784 21.4699 14.1487 21.4699C14.2933 21.4699 14.4364 21.437 14.5648 21.3728L20.1527 10.317ZM20.1527 10.317L20.1604 10.313C20.4337 10.1702 20.7662 10.1817 21.0564 10.3556C21.3405 10.5355 21.4987 10.8256 21.4987 11.1499V16.6599C21.4987 17.4291 21.0769 18.1073 20.3941 18.4532C20.3937 18.4534 20.3934 18.4536 20.393 18.4537L14.5651 21.3727L20.1527 10.317Z" fill="#9F959C" stroke="#999898"/>
</svg>
