<svg width="32" height="32" viewBox="0 0 32 32" fill="none" xmlns="http://www.w3.org/2000/svg">
<path d="M21.0676 2.94658C20.5209 2.39991 19.5742 2.77324 19.5742 3.53324V8.18658C19.5742 10.1332 21.2276 11.7466 23.2409 11.7466C24.5076 11.7599 26.2676 11.7599 27.7742 11.7599C28.5342 11.7599 28.9342 10.8666 28.4009 10.3332C26.4809 8.39991 23.0409 4.91991 21.0676 2.94658Z" fill="#743F65"/>
<path d="M27.332 13.5867H23.4787C20.3187 13.5867 17.7454 11.0134 17.7454 7.85341V4.00008C17.7454 3.26675 17.1454 2.66675 16.412 2.66675H10.7587C6.65203 2.66675 3.33203 5.33342 3.33203 10.0934V21.9067C3.33203 26.6667 6.65203 29.3334 10.7587 29.3334H21.2387C25.3454 29.3334 28.6654 26.6667 28.6654 21.9067V14.9201C28.6654 14.1867 28.0654 13.5867 27.332 13.5867ZM15.332 23.6667H9.9987C9.45203 23.6667 8.9987 23.2134 8.9987 22.6667C8.9987 22.1201 9.45203 21.6667 9.9987 21.6667H15.332C15.8787 21.6667 16.332 22.1201 16.332 22.6667C16.332 23.2134 15.8787 23.6667 15.332 23.6667ZM17.9987 18.3334H9.9987C9.45203 18.3334 8.9987 17.8801 8.9987 17.3334C8.9987 16.7867 9.45203 16.3334 9.9987 16.3334H17.9987C18.5454 16.3334 18.9987 16.7867 18.9987 17.3334C18.9987 17.8801 18.5454 18.3334 17.9987 18.3334Z" fill="#743F65"/>
</svg>
