<svg width="24" height="24" viewBox="0 0 24 24" fill="none" xmlns="http://www.w3.org/2000/svg">
<path d="M21 21.5H3C2.86614 21.5 2.75 21.3839 2.75 21.25C2.75 21.1161 2.86614 21 3 21H21C21.1339 21 21.25 21.1161 21.25 21.25C21.25 21.3839 21.1339 21.5 21 21.5Z" fill="#9F959C" stroke="#9F959C"/>
<path d="M18.6651 3.83353L18.6651 3.83353L18.6668 3.8353C19.6118 4.7708 19.9968 5.60868 19.9886 6.41492L19.9886 6.41492V6.41997C19.9886 7.19744 19.6037 8.02725 18.6669 8.95463L18.6668 8.95462L18.6636 8.95789L17.5041 10.1271C15.0561 9.40907 13.0942 7.44892 12.3737 5.00197L13.5422 3.83353C14.4845 2.89117 15.3361 2.50115 16.1191 2.50621C16.9039 2.51129 17.7454 2.91386 18.6651 3.83353Z" fill="#9F959C" stroke="#9F959C"/>
<path d="M15.6084 11.53C15.3184 11.39 15.0384 11.25 14.7684 11.09C14.5484 10.96 14.3384 10.82 14.1284 10.67C13.9584 10.56 13.7584 10.4 13.5684 10.24C13.5484 10.23 13.4784 10.17 13.3984 10.09C13.0684 9.80999 12.6984 9.44999 12.3684 9.04999C12.3384 9.02999 12.2884 8.95999 12.2184 8.86999C12.1184 8.74999 11.9484 8.54999 11.7984 8.31999C11.6784 8.16999 11.5384 7.94999 11.4084 7.72999C11.2484 7.45999 11.1084 7.18999 10.9684 6.90999C10.9472 6.86459 10.9267 6.81943 10.9068 6.77452C10.7592 6.44121 10.3246 6.34376 10.0668 6.60152L4.33837 12.33C4.20837 12.46 4.08837 12.71 4.05837 12.88L3.51837 16.71C3.41837 17.39 3.60837 18.03 4.02837 18.46C4.38837 18.81 4.88837 19 5.42837 19C5.54837 19 5.66837 18.99 5.78837 18.97L9.62837 18.43C9.80837 18.4 10.0584 18.28 10.1784 18.15L15.8997 12.4287C16.1592 12.1691 16.0613 11.7237 15.7237 11.5796C15.6857 11.5634 15.6473 11.5469 15.6084 11.53Z" fill="#9F959C"/>
</svg>
