<svg width="30" height="26" viewBox="0 0 30 26" fill="none" xmlns="http://www.w3.org/2000/svg">
<path d="M24.7334 7.55998V14.4267C24.7334 18.5333 22.3867 20.2933 18.8667 20.2933H7.14669C6.54669 20.2933 5.97336 20.24 5.44002 20.12C5.10669 20.0667 4.7867 19.9734 4.49337 19.8667C2.49337 19.12 1.28003 17.3867 1.28003 14.4267V7.55998C1.28003 3.45331 3.62669 1.69336 7.14669 1.69336H18.8667C21.8534 1.69336 24 2.96002 24.5734 5.85335C24.6667 6.38669 24.7334 6.93331 24.7334 7.55998Z" stroke="#500689" stroke-width="2" stroke-miterlimit="10" stroke-linecap="round" stroke-linejoin="round"/>
<path d="M28.7349 11.5601V18.4268C28.7349 22.5335 26.3882 24.2935 22.8682 24.2935H11.1482C10.1615 24.2935 9.26821 24.1602 8.49487 23.8669C6.90821 23.2802 5.82819 22.0669 5.44153 20.1202C5.97486 20.2402 6.54819 20.2935 7.14819 20.2935H18.8682C22.3882 20.2935 24.7349 18.5335 24.7349 14.4268V7.56014C24.7349 6.93347 24.6815 6.37352 24.5749 5.85352C27.1082 6.38685 28.7349 8.17347 28.7349 11.5601Z" stroke="#500689" stroke-width="2" stroke-miterlimit="10" stroke-linecap="round" stroke-linejoin="round"/>
<path d="M12.9979 14.5195C14.942 14.5195 16.5179 12.9436 16.5179 10.9995C16.5179 9.05547 14.942 7.47949 12.9979 7.47949C11.0539 7.47949 9.47791 9.05547 9.47791 10.9995C9.47791 12.9436 11.0539 14.5195 12.9979 14.5195Z" stroke="#500689" stroke-width="2" stroke-miterlimit="10" stroke-linecap="round" stroke-linejoin="round"/>
<path d="M5.37341 8.06738V13.9341" stroke="#E6A320" stroke-width="2" stroke-miterlimit="10" stroke-linecap="round" stroke-linejoin="round"/>
<path d="M20.629 8.06738V13.9341" stroke="#E6A320" stroke-width="2" stroke-miterlimit="10" stroke-linecap="round" stroke-linejoin="round"/>
</svg>
