<svg width="43" height="43" viewBox="0 0 43 43" fill="none" xmlns="http://www.w3.org/2000/svg">
<rect x="0.910156" y="0.453613" width="41.2653" height="42.0484" rx="19.8073" fill="#FAFAFA"/>
<path d="M28.9846 16.3008L28.9863 16.301C29.1019 16.312 29.1892 16.413 29.1837 16.5308C29.1698 16.6373 29.0779 16.7155 28.9759 16.7155H28.9758H28.9756H28.9755H28.9753H28.9752H28.9751H28.9749H28.9748H28.9746H28.9745H28.9743H28.9742H28.974H28.9739H28.9738H28.9736H28.9735H28.9733H28.9732H28.9731H28.9729H28.9728H28.9726H28.9725H28.9724H28.9722H28.9721H28.9719H28.9718H28.9716H28.9715H28.9714H28.9712H28.9711H28.971H28.9708H28.9707H28.9705H28.9704H28.9703H28.9701H28.97H28.9698H28.9697H28.9696H28.9694H28.9693H28.9692H28.969H28.9689H28.9688H28.9686H28.9685H28.9683H28.9682H28.9681H28.9679H28.9678H28.9677H28.9675H28.9674H28.9673H28.9671H28.967H28.9669H28.9667H28.9666H28.9665H28.9663H28.9662H28.9661H28.9659H28.9658H28.9657H28.9655H28.9654H28.9653H28.9651H28.965H28.9649H28.9647H28.9646H28.9645H28.9643H28.9642H28.9641H28.9639H28.9638H28.9637H28.9635H28.9634H28.9633H28.9631H28.963H28.9629H28.9628H28.9626H28.9625H28.9624H28.9622H28.9621H28.962H28.9618H28.9617H28.9616H28.9615H28.9613H28.9612H28.9611H28.9609H28.9608H28.9607H28.9606H28.9604H28.9603H28.9602H28.96H28.9599H28.9598H28.9597H28.9595H28.9594H28.9593H28.9591H28.959H28.9589H28.9588H28.9586H28.9585H28.9584H28.9583H28.9581H28.958H28.9579H28.9578H28.9576H28.9575H28.9574H28.9572H28.9571H28.957H28.9569H28.9567H28.9566H28.9565H28.9564H28.9562H28.9561H28.956H28.9559H28.9557H28.9556H28.9555H28.9554H28.9552H28.9551H28.955H28.9549H28.9547H28.9546H28.9545H28.9544H28.9542H28.9541H28.954H28.9539H28.9538H28.9536H28.9535H28.9534H28.9533H28.9531H28.953H28.9529H28.9528H28.9526H28.9525H28.9524H28.9523H28.9521H28.952H28.9519H28.9518H28.9517H28.9515H28.9514H28.9513H28.9512H28.951H28.9509H28.9508H28.9507H28.9506H28.9504H28.9503H28.9502H28.9501H28.9499H28.9498H28.9497H28.9496H28.9495H28.9493H28.9492H28.9491H28.949H28.9488H28.9487H28.9486H28.9485H28.9484H28.9482H28.9481H28.948H28.9479H28.9478H28.9476H28.9475H28.9474H28.9473H28.9471H28.947H28.9469H28.9468H28.9467H28.9465H28.9464H28.9463H28.9462H28.9461H28.9459H28.9458H28.9457H28.9456H28.9454H28.9453H28.9452H28.9451H28.945H28.9448H28.9447H28.9446H28.9445H28.9444H28.9442H28.9441H28.944H28.9439H28.9438H28.9436H28.9435H28.9434H28.9433H28.9431H28.943H28.9429H28.9428H28.9427H28.9425H28.9424H28.9423H28.9422H28.9421H28.9419H28.9418H28.9417H28.9416H28.9415H28.9413H28.9412H28.9411H28.941H28.9409H28.9407H28.9406H28.9405H28.9404H28.9402H28.9401H28.94H28.9399H28.9398H28.9396H28.9395H28.9394H28.9393H28.9392H28.939H28.9389H28.9388H28.9387H28.9385H28.9384H28.9383H28.9382H28.9381H28.9379H28.9378H28.9377H28.9376H28.9375H28.9373H28.9372H28.9371H28.937H28.9368H28.9367H28.9366H28.9365H28.9364H28.9362H28.9361H28.936H28.9359H28.9357H28.9356H28.9355H28.9354H28.9353H28.9351H28.935H28.9349H28.9348H28.9346H28.9345H28.9344H28.9343H28.9342H28.934H28.9339H28.9338H28.9337H28.9335H28.9334H28.9333H28.9332H28.9331H28.9329H28.9328H28.9327H28.9326H28.9324H28.9323H28.9322H28.9321H28.9319H28.9318H28.9317H28.9316H28.9314H28.9313H28.9312H28.9311H28.9309H28.9308H28.9307H28.9306H28.9305C24.5476 16.278 20.1675 16.1121 15.8132 16.5442C15.813 16.5442 15.8129 16.5442 15.8128 16.5442L14.1308 16.7091C14.1307 16.7091 14.1305 16.7091 14.1304 16.7091C14.0095 16.7204 13.9147 16.6377 13.9039 16.5269C13.893 16.4154 13.9744 16.3123 14.0935 16.301L14.0947 16.3009L15.7778 16.1359C15.7779 16.1358 15.778 16.1358 15.7781 16.1358C16.5378 16.0623 17.2987 16.0132 18.0672 15.9636L18.3947 15.9425L18.4478 15.6186L18.6211 14.5626C18.6898 14.1457 18.7583 13.7847 18.981 13.5103C19.1809 13.264 19.5694 13.0181 20.4505 13.0181H22.6128C23.4927 13.0181 23.884 13.2731 24.0861 13.5269C24.3111 13.8095 24.3777 14.1749 24.4421 14.5701L24.4421 14.5701L24.4425 14.5725L24.6183 15.6112V15.9752L25.0081 15.9968C26.3399 16.0708 27.6626 16.1694 28.9846 16.3008Z" fill="#331F2D" stroke="#571845" stroke-width="0.825306"/>
<path d="M26.7562 18.3824C26.9224 18.3824 27.0861 18.4505 27.2065 18.5742C27.321 18.7004 27.3857 18.8711 27.3758 19.052C27.3758 19.0522 27.3758 19.0525 27.3758 19.0527L26.8644 27.5077C26.8173 28.1622 26.7638 28.7409 26.4457 29.1764C26.1533 29.5765 25.5593 29.9449 24.1895 29.9449H18.891C17.522 29.9449 16.9277 29.5748 16.635 29.1736C16.3166 28.7369 16.2632 28.1579 16.2161 27.5077L15.7047 19.0438C15.7046 19.0436 15.7046 19.0434 15.7046 19.0432C15.695 18.8711 15.7594 18.6988 15.877 18.571C15.9836 18.455 16.1515 18.3824 16.3243 18.3824H26.7562ZM20.162 26.6354H22.9102C23.4765 26.6354 23.9419 26.1701 23.9419 25.6038C23.9419 25.0375 23.4765 24.5722 22.9102 24.5722H20.162C19.5957 24.5722 19.1303 25.0375 19.1303 25.6038C19.1303 26.1701 19.5957 26.6354 20.162 26.6354ZM19.477 23.3342H23.6035C24.1698 23.3342 24.6351 22.8689 24.6351 22.3026C24.6351 21.7363 24.1698 21.2709 23.6035 21.2709H19.477C18.9107 21.2709 18.4453 21.7363 18.4453 22.3026C18.4453 22.8689 18.9107 23.3342 19.477 23.3342Z" fill="#331F2D" stroke="#571845" stroke-width="0.825306"/>
</svg>
