<svg width="21" height="21" viewBox="0 0 21 21" fill="none" xmlns="http://www.w3.org/2000/svg">
<path d="M18.0409 18.318H3.18539C3.07491 18.318 2.97906 18.2221 2.97906 18.1117C2.97906 18.0012 3.07491 17.9053 3.18539 17.9053H18.0409C18.1514 17.9053 18.2472 18.0012 18.2472 18.1117C18.2472 18.2221 18.1514 18.318 18.0409 18.318Z" fill="#292D32" stroke="#571845" stroke-width="0.825306"/>
<path d="M16.1155 3.73763L16.1155 3.73763L16.117 3.73909C16.8968 4.51116 17.2146 5.20266 17.2079 5.86807L17.2078 5.86807V5.87223C17.2078 6.51388 16.8902 7.19873 16.117 7.9641L16.117 7.96409L16.1143 7.96679L15.1573 8.93171C13.137 8.33915 11.5179 6.72143 10.9232 4.70195L11.8875 3.73763C12.6653 2.95989 13.3681 2.63801 14.0143 2.64219C14.662 2.64637 15.3565 2.97861 16.1155 3.73763ZM15.2041 8.94428L15.2041 8.94427L15.2041 8.94428Z" fill="#292D32" stroke="#571845" stroke-width="0.825306"/>
<path d="M13.5913 10.0896C13.352 9.97403 13.1209 9.85848 12.8981 9.72643C12.7165 9.61914 12.5432 9.5036 12.3699 9.37981C12.2296 9.28902 12.0645 9.15697 11.9077 9.02492C11.8912 9.01667 11.8334 8.96715 11.7674 8.90113C11.4951 8.67004 11.1897 8.37293 10.9174 8.04281C10.8926 8.02631 10.8513 7.96853 10.7936 7.89426C10.711 7.79522 10.5707 7.63016 10.4469 7.44034C10.3479 7.31654 10.2324 7.13497 10.1251 6.95341C9.99301 6.73058 9.87747 6.50774 9.76193 6.27666C9.74444 6.23919 9.72753 6.20192 9.71112 6.16486C9.58933 5.88977 9.23062 5.80935 9.01789 6.02207L4.29015 10.7498C4.18286 10.8571 4.08383 11.0634 4.05907 11.2037L3.6134 14.3647C3.53087 14.9259 3.68768 15.4541 4.03431 15.8089C4.33142 16.0978 4.74407 16.2546 5.18974 16.2546C5.28877 16.2546 5.38781 16.2463 5.48685 16.2298L8.65602 15.7842C8.80457 15.7594 9.0109 15.6604 9.10994 15.5531L13.8318 10.8313C14.046 10.6171 13.9652 10.2494 13.6865 10.1305C13.6552 10.1171 13.6235 10.1035 13.5913 10.0896Z" fill="#292D32"/>
</svg>
