<svg width="24" height="24" viewBox="0 0 24 24" fill="none" xmlns="http://www.w3.org/2000/svg">
<path d="M13.6161 3.2197L13.6171 3.22052L20.5457 8.75942C20.5459 8.75958 20.5461 8.75975 20.5463 8.75992C20.8453 9.00092 21.1177 9.40106 21.2959 9.8682C21.4741 10.3352 21.5381 10.8166 21.476 11.1986C21.4759 11.1989 21.4759 11.1991 21.4758 11.1994L20.1464 19.1561C20.1463 19.1564 20.1463 19.1567 20.1462 19.157C19.9465 20.3271 18.7844 21.31 17.5993 21.31H6.39929C5.20362 21.31 4.05204 20.3365 3.85239 19.1572C3.85236 19.157 3.85233 19.1568 3.8523 19.1566L2.52245 11.1976L2.52246 11.1976L2.52193 11.1945C2.45596 10.8142 2.51738 10.3343 2.69519 9.8682C2.87298 9.4022 3.14716 9.00243 3.45041 8.76139L3.45184 8.76024L10.3818 3.21024L10.3821 3.21005C11.2583 2.5074 12.728 2.50594 13.6161 3.2197ZM8.99929 13C8.99929 14.6561 10.3431 16 11.9993 16C13.6554 16 14.9993 14.6561 14.9993 13C14.9993 11.3438 13.6554 9.99997 11.9993 9.99997C10.3431 9.99997 8.99929 11.3438 8.99929 13Z" fill="#9F959C" stroke="#9F959C"/>
</svg>
