<svg width="24" height="25" viewBox="0 0 24 25" fill="none" xmlns="http://www.w3.org/2000/svg">
<path d="M9 22.646H15C20 22.646 22 20.646 22 15.646V9.646C22 4.646 20 2.646 15 2.646H9C4 2.646 2 4.646 2 9.646V15.646C2 20.646 4 22.646 9 22.646Z" stroke="#292D32" stroke-width="1.5" stroke-linecap="round" stroke-linejoin="round"/>
<path d="M12 16.146C13.933 16.146 15.5 14.579 15.5 12.646C15.5 10.713 13.933 9.146 12 9.146C10.067 9.146 8.5 10.713 8.5 12.646C8.5 14.579 10.067 16.146 12 16.146Z" stroke="#292D32" stroke-width="1.5" stroke-linecap="round" stroke-linejoin="round"/>
<path d="M17.6361 7.646H17.6477" stroke="#292D32" stroke-width="2" stroke-linecap="round" stroke-linejoin="round"/>
</svg>
