<svg width="24" height="24" viewBox="0 0 24 24" fill="none" xmlns="http://www.w3.org/2000/svg">
<path d="M12.8203 2.73874L12.8224 2.73991L19.0909 6.1191C19.0912 6.11922 19.0914 6.11935 19.0916 6.11948C19.3826 6.27796 19.5697 6.58453 19.5697 6.95979C19.5697 7.33508 19.3826 7.64167 19.0915 7.80014C19.0913 7.80025 19.0911 7.80036 19.0909 7.80047L12.8224 11.1797L12.8203 11.1808C12.5655 11.3198 12.2781 11.3898 11.9997 11.3898C11.7212 11.3898 11.4338 11.3198 11.1791 11.1808L11.1769 11.1797L4.90844 7.80047C4.90825 7.80037 4.90805 7.80026 4.90785 7.80015C4.61842 7.64256 4.42969 7.32704 4.42969 6.95979C4.42969 6.58452 4.61674 6.27795 4.90776 6.11947C4.90799 6.11935 4.90822 6.11922 4.90844 6.1191L11.1769 2.73991L11.1769 2.73991L11.1791 2.73873C11.6899 2.46014 12.3095 2.46014 12.8203 2.73874Z" fill="#FEFCFD" stroke="#FEFCFD"/>
<path d="M9.68639 13.2372L9.68639 13.2372L3.84859 10.3183C3.54845 10.1723 3.21255 10.189 2.94451 10.3543C2.65908 10.5341 2.5 10.8249 2.5 11.15V16.66C2.5 17.4203 2.92286 18.1079 3.60471 18.4533C3.60504 18.4535 3.60537 18.4537 3.6057 18.4538L9.43361 21.3728L9.68639 13.2372ZM9.68639 13.2372L9.68851 13.2383M9.68639 13.2372L9.68851 13.2383M9.68851 13.2383C10.3657 13.5729 10.788 14.2562 10.78 15.0248L10.78 15.0248V15.03V20.54C10.78 20.8711 10.6164 21.1658 10.3413 21.3321L10.34 21.3329M9.68851 13.2383L10.34 21.3329M10.34 21.3329C10.1901 21.4242 10.0204 21.47 9.85 21.47C9.70544 21.47 9.56238 21.4371 9.43391 21.3729L10.34 21.3329Z" fill="#FEFCFD" stroke="#FEFCFD"/>
<path d="M20.1547 10.3173L20.1546 10.3172L14.3264 13.2363C14.3261 13.2364 14.3259 13.2366 14.3256 13.2367C13.6426 13.5826 13.2207 14.2609 13.2207 15.0301V20.5401C13.2207 20.8712 13.3843 21.1659 13.6594 21.3323L13.6607 21.333C13.8106 21.4243 13.9803 21.4701 14.1507 21.4701C14.2953 21.4701 14.4383 21.4373 14.5668 21.3731L20.1547 10.3173ZM20.1547 10.3173L20.1623 10.3133C20.4356 10.1704 20.7682 10.1819 21.0584 10.3558C21.3424 10.5358 21.5007 10.8258 21.5007 11.1501V16.6601C21.5007 17.4293 21.0789 18.1075 20.396 18.4535C20.3957 18.4536 20.3953 18.4538 20.395 18.454L14.5671 21.3729L20.1547 10.3173Z" fill="#FEFCFD" stroke="#FEFCFD"/>
</svg>
