<svg width="24" height="24" viewBox="0 0 24 24" fill="none" xmlns="http://www.w3.org/2000/svg">
<path d="M2.77 10C2.34 10 2 9.66 2 9.23V6.92C2 4.21 4.21 2 6.92 2H9.23C9.66 2 10 2.34 10 2.77C10 3.2 9.66 3.54 9.23 3.54H6.92C5.05 3.54 3.54 5.06 3.54 6.92V9.23C3.54 9.66 3.19 10 2.77 10Z" fill="#9F959C"/>
<path d="M21.23 10C20.81 10 20.46 9.66 20.46 9.23V6.92C20.46 5.05 18.94 3.54 17.08 3.54H14.77C14.34 3.54 14 3.19 14 2.77C14 2.35 14.34 2 14.77 2H17.08C19.79 2 22 4.21 22 6.92V9.23C22 9.66 21.66 10 21.23 10Z" fill="#9F959C"/>
<path d="M17.0819 21.9999H15.6919C15.2719 21.9999 14.9219 21.6599 14.9219 21.2299C14.9219 20.8099 15.2619 20.4599 15.6919 20.4599H17.0819C18.9519 20.4599 20.4619 18.9399 20.4619 17.0799V15.6999C20.4619 15.2799 20.8019 14.9299 21.2319 14.9299C21.6519 14.9299 22.0019 15.2699 22.0019 15.6999V17.0799C22.0019 19.7899 19.7919 21.9999 17.0819 21.9999Z" fill="#9F959C"/>
<path d="M9.23 22H6.92C4.21 22 2 19.79 2 17.08V14.77C2 14.34 2.34 14 2.77 14C3.2 14 3.54 14.34 3.54 14.77V17.08C3.54 18.95 5.06 20.46 6.92 20.46H9.23C9.65 20.46 10 20.8 10 21.23C10 21.66 9.66 22 9.23 22Z" fill="#9F959C"/>
<path d="M18.4595 11.23H17.0995H6.89953H5.53953C5.10953 11.23 4.76953 11.58 4.76953 12C4.76953 12.42 5.10953 12.77 5.53953 12.77H6.89953H17.0995H18.4595C18.8895 12.77 19.2295 12.42 19.2295 12C19.2295 11.58 18.8895 11.23 18.4595 11.23Z" fill="#9F959C"/>
<path d="M6.89844 13.94V14.27C6.89844 15.93 8.23844 17.27 9.89844 17.27H14.0984C15.7584 17.27 17.0984 15.93 17.0984 14.27V13.94C17.0984 13.82 17.0084 13.73 16.8884 13.73H7.10844C6.98844 13.73 6.89844 13.82 6.89844 13.94Z" fill="#9F959C"/>
<path d="M6.89844 10.06V9.72998C6.89844 8.06998 8.23844 6.72998 9.89844 6.72998H14.0984C15.7584 6.72998 17.0984 8.06998 17.0984 9.72998V10.06C17.0984 10.18 17.0084 10.27 16.8884 10.27H7.10844C6.98844 10.27 6.89844 10.18 6.89844 10.06Z" fill="#9F959C"/>
</svg>
