<svg width="24" height="24" viewBox="0 0 24 24" fill="none" xmlns="http://www.w3.org/2000/svg">
<path d="M5.72454 21.1878L5.72459 21.1877L5.71307 21.184C4.67927 20.8516 3.88623 20.2538 3.34694 19.4309C2.80489 18.6039 2.5 17.5195 2.5 16.19V7.81C2.5 6.08944 3.01093 4.77618 3.89355 3.89355C4.77618 3.01093 6.08944 2.5 7.81 2.5H16.19C17.9106 2.5 19.2238 3.01093 20.1064 3.89355C20.9891 4.77618 21.5 6.08944 21.5 7.81V16.19C21.5 17.5195 21.1951 18.6039 20.6531 19.4309C20.1138 20.2538 19.3207 20.8516 18.2869 21.184L18.2869 21.1839L18.2755 21.1878C17.68 21.3954 16.9777 21.5 16.19 21.5H7.81C7.02226 21.5 6.32004 21.3954 5.72454 21.1878ZM17.5242 20.4664L17.719 20.8499L18.1273 20.7146C19.0692 20.4025 19.8026 19.8579 20.2929 19.0722C20.7781 18.2947 21 17.322 21 16.19V7.81C21 6.31593 20.6043 5.09221 19.7561 4.24395C18.9078 3.39568 17.6841 3 16.19 3H7.81C6.31593 3 5.09221 3.39568 4.24395 4.24395C3.39568 5.09221 3 6.31593 3 7.81V16.2C3 17.3328 3.22467 18.3077 3.70957 19.0847C4.19959 19.8699 4.93096 20.4133 5.86617 20.7157L5.94117 20.74H6.02H6.03H6.33616L6.47534 20.4673C7.35636 18.7412 9.45607 17.47 12 17.47C14.5441 17.47 16.6532 18.7513 17.5242 20.4664Z" fill="#999898" stroke="#999898"/>
<path d="M11.9999 8C10.0199 8 8.41992 9.6 8.41992 11.58C8.41992 13.56 10.0199 15.17 11.9999 15.17C13.9799 15.17 15.5799 13.56 15.5799 11.58C15.5799 9.6 13.9799 8 11.9999 8Z" fill="#999898"/>
</svg>
