<svg width="24" height="25" viewBox="0 0 24 25" fill="none" xmlns="http://www.w3.org/2000/svg">
<path d="M5.5 2.646H4.1C3.1 2.646 2.6 3.746 3.3 4.446L9 10.146C10.6 11.746 13.3 11.746 14.9 10.146L20.6 4.446C21.4 3.746 20.9 2.646 19.9 2.646H18.5C17.7 2.646 16.9 2.946 16.3 3.546L12.7 7.146C12.3 7.546 11.6 7.546 11.2 7.146L7.7 3.546C7.1 2.946 6.3 2.646 5.5 2.646Z" stroke="#17191C" stroke-width="1.5" stroke-miterlimit="10" stroke-linecap="round" stroke-linejoin="round"/>
<path d="M5.49998 22.6458H4.09998C3.19998 22.6458 2.69998 21.5458 3.39998 20.8458L8.99998 15.1458C10.6 13.5458 13.3 13.5458 14.9 15.1458L20.6 20.8458C21.3 21.5458 20.8 22.6458 19.9 22.6458H18.5C17.7 22.6458 16.9 22.3458 16.3 21.7458L12.7 18.1458C12.3 17.7458 11.6 17.7458 11.2 18.1458L7.59998 21.7458C7.09998 22.2458 6.29998 22.6458 5.49998 22.6458Z" stroke="#17191C" stroke-width="1.5" stroke-miterlimit="10" stroke-linecap="round" stroke-linejoin="round"/>
</svg>
