<svg width="298" height="121" viewBox="0 0 298 121" fill="none" xmlns="http://www.w3.org/2000/svg">
<path d="M290.256 120.811L297.298 120.804L297.469 0.358576L290.392 0.273512L290.256 120.811Z" fill="#263238"/>
<path d="M236.62 120.765L243.753 120.723L243.833 0.312827L236.756 0.227763L236.62 120.765Z" fill="#263238"/>
<path d="M225.574 120.747L232.616 120.74L232.751 0.203103L225.618 0.245025L225.574 120.747Z" fill="#263238"/>
<path d="M193.152 120.646L200.229 120.731L200.364 0.193953L193.232 0.235886L193.152 120.646Z" fill="#263238"/>
<path d="M136.473 120.619L143.642 120.668L143.686 0.166492L136.645 0.172863L136.473 120.619Z" fill="#263238"/>
<path d="M283.707 120.738L287.218 120.844L287.354 0.30647L283.787 0.327375L283.707 120.738Z" fill="#263238"/>
<path d="M276.577 120.783L280.143 120.762L280.314 0.316602L276.748 0.337562L276.577 120.783Z" fill="#263238"/>
<path d="M269.533 120.783L273.1 120.762L273.179 0.352089L269.669 0.246064L269.533 120.783Z" fill="#263238"/>
<path d="M155.215 120.692L158.782 120.671L158.826 0.169166L155.351 0.154576L155.215 120.692Z" fill="#263238"/>
<path d="M148.137 120.6L151.648 120.706L151.783 0.169166L148.308 0.154565L148.137 120.6Z" fill="#263238"/>
<path d="M262.494 120.792L265.969 120.807L266.104 0.269815L262.538 0.290776L262.494 120.792Z" fill="#263238"/>
<path d="M255.324 120.738L258.89 120.717L259.062 0.270908L255.495 0.291813L255.324 120.738Z" fill="#263238"/>
<path d="M184.563 120.728L188.129 120.707L188.174 0.205766L184.699 0.191165L184.563 120.728Z" fill="#263238"/>
<path d="M177.485 120.637L180.96 120.652L181.131 0.205766L177.565 0.226727L177.485 120.637Z" fill="#263238"/>
<path d="M170.354 120.683L173.92 120.662L174.091 0.216009L170.525 0.236914L170.354 120.683Z" fill="#263238"/>
<path d="M214.93 120.683L218.406 120.697L218.577 0.251571L215.01 0.272476L214.93 120.683Z" fill="#263238"/>
<path d="M206.836 120.683L210.311 120.697L210.482 0.251571L206.915 0.272487L206.836 120.683Z" fill="#263238"/>
<path d="M248.281 120.747L251.848 120.726L251.928 0.315564L248.453 0.300974L248.281 120.747Z" fill="#263238"/>
<path d="M122.391 120.628L129.432 120.621L129.603 0.175579L122.435 0.126077L122.391 120.628Z" fill="#263238"/>
<path d="M68.7547 120.591L75.7962 120.585L75.9674 0.13898L68.8903 0.053916L68.7547 120.591Z" fill="#263238"/>
<path d="M57.5818 120.518L64.6589 120.603L64.7945 0.0658501L57.753 0.0722211L57.5818 120.518Z" fill="#263238"/>
<path d="M115.751 120.591L119.317 120.57L119.397 0.160017L115.922 0.145426L115.751 120.591Z" fill="#263238"/>
<path d="M108.708 120.591L112.183 120.606L112.354 0.160017L108.788 0.180977L108.708 120.591Z" fill="#263238"/>
<path d="M101.576 120.637L105.143 120.616L105.278 0.0787055L101.712 0.0996772L101.576 120.637Z" fill="#263238"/>
<path d="M94.5337 120.646L98.1001 120.625L98.1444 0.123417L94.6693 0.108816L94.5337 120.646Z" fill="#263238"/>
<path d="M7.54691 120.536L11.1134 120.515L11.1577 0.0136748L7.68253 -0.000976562L7.54691 120.536Z" fill="#263238"/>
<path d="M0.46875 120.445L3.97937 120.551L4.11499 0.013619L0.548584 0.0345798L0.46875 120.445Z" fill="#263238"/>
<path d="M87.4588 120.564L90.9339 120.578L91.105 0.132567L87.5386 0.153539L87.4588 120.564Z" fill="#263238"/>
<path d="M80.3237 120.591L83.8901 120.57L84.0613 0.12438L80.4593 0.0539171L80.3237 120.591Z" fill="#263238"/>
<path d="M27.3054 120.518L34.347 120.512L34.5181 0.0657251L27.3497 0.016279L27.3054 120.518Z" fill="#263238"/>
<path d="M16.1712 120.545L23.2128 120.539L23.3484 0.00185709L16.2155 0.0437285L16.1712 120.545Z" fill="#263238"/>
<path d="M45.9181 120.536L49.4845 120.515L49.6557 0.0695599L46.0893 0.0905208L45.9181 120.536Z" fill="#263238"/>
<path d="M38.8786 120.546L42.445 120.525L42.5249 0.114267L39.0498 0.0996663L38.8786 120.546Z" fill="#263238"/>
</svg>
