<svg width="298" height="184" viewBox="0 0 298 184" fill="none" xmlns="http://www.w3.org/2000/svg">
<g clip-path="url(#clip0_833_6779)">
<path fill-rule="evenodd" clip-rule="evenodd" d="M285.746 3.05176e-05H4.42698C1.98419 3.05176e-05 0.00390625 1.98032 0.00390625 4.42311V179.577C0.00390625 182.02 1.98419 184 4.42698 184H285.741C285.738 183.891 285.736 183.782 285.736 183.672C285.736 177.548 290.701 172.583 296.825 172.583C296.873 172.583 296.921 172.584 296.968 172.584C297.057 172.586 297.146 172.588 297.235 172.591V11.5539C297.099 11.5589 296.962 11.5614 296.825 11.5614C290.701 11.5614 285.736 6.59693 285.736 0.472998C285.736 0.314544 285.74 0.156866 285.746 3.05176e-05Z" fill="#571845"/>
<mask id="path-2-inside-1_833_6779" fill="white">
<path d="M38.9258 19.4615H237.08V153.923H38.9258V19.4615Z"/>
</mask>
<path d="M38.9258 20.3462H237.08V18.5769H38.9258V20.3462ZM237.08 153.038H38.9258V154.808H237.08V153.038Z" fill="white" fill-opacity="0.3" mask="url(#path-2-inside-1_833_6779)"/>
<path d="M48.7734 40.0218H61.3066V45.7171H56.1738V51.1136H60.7441V56.5276H56.1738V68.4808H48.7734V40.0218ZM70.5176 40.0218V62.7855H75.0176V68.4808H63.1172V40.0218H70.5176ZM90.2402 40.0218L84.8438 58.18V68.4808H77.9883V58.18L72.7852 40.0218H79.5879C80.6543 45.5648 81.252 49.2972 81.3809 51.2191C81.791 48.1839 82.4766 44.4515 83.4375 40.0218H90.2402ZM106.43 40.0218V45.7171H102.035V68.4808H94.6348V45.7171H90.2578V40.0218H106.43ZM115.518 40.0218V68.4808H108.117V40.0218H115.518ZM141.322 40.0218V68.4808H134.854V49.2679L132.27 68.4808H127.682L124.957 49.7073V68.4808H118.488V40.0218H128.068C128.35 41.7327 128.648 43.7484 128.965 46.0687L129.984 53.3109L131.672 40.0218H141.322ZM144.293 40.0218H156.633V45.7171H151.693V51.1136H156.316V56.5276H151.693V62.7855H157.125V68.4808H144.293V40.0218ZM165.633 40.0218H178.166V45.7171H173.033V51.1136H177.604V56.5276H173.033V68.4808H165.633V40.0218ZM179.977 40.0218H192.316V45.7171H187.377V51.1136H192V56.5276H187.377V62.7855H192.809V68.4808H179.977V40.0218ZM210.633 48.6351H203.76V46.5257C203.76 45.5413 203.672 44.9144 203.496 44.6448C203.32 44.3753 203.027 44.2405 202.617 44.2405C202.172 44.2405 201.832 44.4222 201.598 44.7855C201.375 45.1487 201.264 45.6995 201.264 46.4378C201.264 47.387 201.393 48.1019 201.65 48.5823C201.896 49.0628 202.594 49.6429 203.742 50.3226C207.035 52.2796 209.109 53.8851 209.965 55.139C210.82 56.3929 211.248 58.4144 211.248 61.2034C211.248 63.2308 211.008 64.7249 210.527 65.6859C210.059 66.6468 209.145 67.4554 207.785 68.1116C206.426 68.7562 204.844 69.0784 203.039 69.0784C201.059 69.0784 199.365 68.7034 197.959 67.9534C196.564 67.2034 195.65 66.2484 195.217 65.0882C194.783 63.928 194.566 62.2816 194.566 60.1487V58.2855H201.439V61.7484C201.439 62.8148 201.533 63.5003 201.721 63.805C201.92 64.1097 202.266 64.262 202.758 64.262C203.25 64.262 203.613 64.0687 203.848 63.6819C204.094 63.2952 204.217 62.721 204.217 61.9593C204.217 60.2835 203.988 59.1878 203.531 58.6722C203.062 58.1566 201.908 57.2952 200.068 56.0882C198.229 54.8694 197.01 53.9847 196.412 53.4339C195.814 52.8831 195.316 52.1214 194.918 51.1487C194.531 50.1761 194.338 48.9339 194.338 47.4222C194.338 45.2425 194.613 43.6487 195.164 42.6409C195.727 41.6331 196.629 40.848 197.871 40.2855C199.113 39.7112 200.613 39.4241 202.371 39.4241C204.293 39.4241 205.928 39.7347 207.275 40.3558C208.635 40.9769 209.531 41.762 209.965 42.7112C210.41 43.6487 210.633 45.2484 210.633 47.5101V48.6351ZM228.492 40.0218V45.7171H224.098V68.4808H216.697V45.7171H212.32V40.0218H228.492Z" fill="#FAFAFA"/>
<path d="M84.9246 82.5577L86.5134 87.4477H91.6551L87.4954 90.4699L89.0843 95.36L84.9246 92.3378L80.7649 95.36L82.3537 90.4699L78.194 87.4477H83.3357L84.9246 82.5577Z" fill="#FFC655"/>
<path d="M106.155 82.5577L107.744 87.4477H112.886L108.726 90.4699L110.315 95.36L106.155 92.3378L101.995 95.36L103.584 90.4699L99.4245 87.4477H104.566L106.155 82.5577Z" fill="#FFC655"/>
<path d="M127.386 82.5577L128.974 87.4477H134.116L129.956 90.4699L131.545 95.36L127.386 92.3378L123.226 95.36L124.815 90.4699L120.655 87.4477H125.797L127.386 82.5577Z" fill="#FFC655"/>
<path d="M148.616 82.5577L150.205 87.4477H155.347L151.187 90.4699L152.776 95.36L148.616 92.3378L144.456 95.36L146.045 90.4699L141.885 87.4477H147.027L148.616 82.5577Z" fill="#FFC655"/>
<path d="M169.846 82.5577L171.435 87.4477H176.577L172.417 90.4699L174.006 95.36L169.846 92.3378L165.687 95.36L167.276 90.4699L163.116 87.4477H168.258L169.846 82.5577Z" fill="#FFC655"/>
<path d="M191.077 82.5577L192.666 87.4477H197.807L193.648 90.4699L195.237 95.36L191.077 92.3378L186.917 95.36L188.506 90.4699L184.346 87.4477H189.488L191.077 82.5577Z" fill="#FFC655"/>
<path d="M110.891 110.492L114.656 135.788H107.922L107.594 131.242H105.234L104.844 135.788H98.0312L101.375 110.492H110.891ZM107.406 126.757C107.073 123.893 106.74 120.356 106.406 116.148C105.74 120.981 105.323 124.518 105.156 126.757H107.406ZM129.719 118.148H123.609V116.273C123.609 115.398 123.531 114.841 123.375 114.601C123.219 114.361 122.958 114.242 122.594 114.242C122.198 114.242 121.896 114.403 121.688 114.726C121.49 115.049 121.391 115.538 121.391 116.195C121.391 117.038 121.505 117.674 121.734 118.101C121.953 118.528 122.573 119.044 123.594 119.648C126.521 121.387 128.365 122.814 129.125 123.929C129.885 125.044 130.266 126.841 130.266 129.32C130.266 131.122 130.052 132.45 129.625 133.304C129.208 134.158 128.396 134.877 127.188 135.46C125.979 136.033 124.573 136.32 122.969 136.32C121.208 136.32 119.703 135.986 118.453 135.32C117.214 134.653 116.401 133.804 116.016 132.773C115.63 131.742 115.438 130.278 115.438 128.382V126.726H121.547V129.804C121.547 130.752 121.63 131.361 121.797 131.632C121.974 131.903 122.281 132.038 122.719 132.038C123.156 132.038 123.479 131.867 123.688 131.523C123.906 131.179 124.016 130.669 124.016 129.992C124.016 128.502 123.812 127.528 123.406 127.07C122.99 126.611 121.964 125.846 120.328 124.773C118.693 123.689 117.609 122.903 117.078 122.413C116.547 121.924 116.104 121.247 115.75 120.382C115.406 119.518 115.234 118.413 115.234 117.07C115.234 115.132 115.479 113.716 115.969 112.82C116.469 111.924 117.271 111.226 118.375 110.726C119.479 110.216 120.812 109.96 122.375 109.96C124.083 109.96 125.536 110.236 126.734 110.788C127.943 111.341 128.74 112.038 129.125 112.882C129.521 113.716 129.719 115.137 129.719 117.148V118.148ZM143.703 110.492L147.469 135.788H140.734L140.406 131.242H138.047L137.656 135.788H130.844L134.188 110.492H143.703ZM140.219 126.757C139.885 123.893 139.552 120.356 139.219 116.148C138.552 120.981 138.135 124.518 137.969 126.757H140.219ZM164.266 110.492L160.5 121.913L164.625 135.788H157.828L155.172 124.945V135.788H148.594V110.492H155.172V120.32L158.094 110.492H164.266ZM165.781 110.492H176.75V115.554H172.359V120.351H176.469V125.163H172.359V130.726H177.188V135.788H165.781V110.492Z" fill="#FAFAFA"/>
<rect x="237.078" y="19.4615" width="21.2308" height="134.462" fill="#FFC655"/>
<path d="M242.663 121.377L253.73 119.729V122.676L251.741 122.819V123.851L253.73 124.022V127.003L242.663 125.54V121.377ZM249.779 122.901C248.526 123.047 246.979 123.193 245.138 123.339C247.252 123.63 248.799 123.813 249.779 123.886V122.901ZM242.663 116.997V114.844C242.663 113.454 242.727 112.515 242.854 112.027C242.982 111.535 243.192 111.161 243.483 110.906C243.775 110.651 244.101 110.492 244.461 110.428C244.816 110.364 245.518 110.332 246.566 110.332H250.442C251.436 110.332 252.101 110.38 252.438 110.476C252.771 110.567 253.033 110.729 253.225 110.961C253.411 111.193 253.544 111.481 253.621 111.822C253.694 112.164 253.73 112.679 253.73 113.367V116.997H242.663ZM244.557 114.119H251.837C251.837 113.704 251.755 113.449 251.591 113.354C251.422 113.258 250.969 113.21 250.23 113.21H245.931C245.429 113.21 245.108 113.226 244.967 113.258C244.826 113.29 244.723 113.363 244.659 113.477C244.591 113.591 244.557 113.805 244.557 114.119ZM242.663 98.1389H253.73V100.655H246.259L253.73 101.659V103.444L246.43 104.503H253.73V107.019H242.663V103.293C243.328 103.184 244.112 103.068 245.015 102.945L247.831 102.548L242.663 101.892V98.1389ZM242.663 91.8657H253.73V94.7437H242.663V91.8657ZM242.663 82.6736H244.878V84.3826H253.73V87.2605H244.878V88.9627H242.663V82.6736ZM249.144 68.4866C250.256 68.4866 251.044 68.5139 251.509 68.5686C251.969 68.6187 252.391 68.7828 252.773 69.0608C253.156 69.3342 253.45 69.7056 253.655 70.175C253.86 70.6444 253.963 71.1913 253.963 71.8157C253.963 72.4081 253.867 72.9413 253.676 73.4153C253.48 73.8847 253.188 74.2629 252.801 74.55C252.413 74.8371 251.992 75.008 251.536 75.0627C251.08 75.1174 250.283 75.1448 249.144 75.1448H247.25C246.138 75.1448 245.352 75.1197 244.892 75.0696C244.427 75.0149 244.003 74.8508 243.62 74.5774C243.237 74.2994 242.943 73.9257 242.738 73.4563C242.533 72.9869 242.431 72.44 242.431 71.8157C242.431 71.2232 242.529 70.6923 242.725 70.2229C242.916 69.7489 243.205 69.3684 243.593 69.0813C243.98 68.7942 244.402 68.6233 244.857 68.5686C245.313 68.5139 246.111 68.4866 247.25 68.4866H249.144ZM245.507 71.3645C244.992 71.3645 244.664 71.3941 244.522 71.4534C244.377 71.508 244.304 71.6243 244.304 71.802C244.304 71.9524 244.363 72.0686 244.481 72.1506C244.595 72.2281 244.937 72.2668 245.507 72.2668H250.675C251.317 72.2668 251.714 72.2418 251.864 72.1916C252.015 72.137 252.09 72.0139 252.09 71.8225C252.09 71.6265 252.003 71.5012 251.83 71.4465C251.657 71.3918 251.244 71.3645 250.593 71.3645H245.507ZM242.663 58.7407H253.73V61.2632L248.699 62.7602H253.73V65.1665H242.663V62.7602L247.646 61.1469H242.663V58.7407ZM242.663 55.3386V50.5398H244.878V52.4607H246.977V50.6628H249.082V52.4607H251.516V50.3484H253.73V55.3386H242.663Z" fill="#FAFAFA"/>
<path d="M96.6465 163.514H98.4922C99.6836 163.514 100.488 163.568 100.906 163.678C101.328 163.787 101.648 163.967 101.867 164.217C102.086 164.467 102.223 164.746 102.277 165.055C102.332 165.359 102.359 165.961 102.359 166.859V170.182C102.359 171.033 102.318 171.604 102.236 171.893C102.158 172.178 102.02 172.402 101.82 172.566C101.621 172.727 101.375 172.84 101.082 172.906C100.789 172.969 100.348 173 99.7578 173H96.6465V163.514ZM99.1133 165.137V171.377C99.4688 171.377 99.6875 171.307 99.7695 171.166C99.8516 171.021 99.8926 170.633 99.8926 170V166.314C99.8926 165.885 99.8789 165.609 99.8516 165.488C99.8242 165.367 99.7617 165.279 99.6641 165.225C99.5664 165.166 99.3828 165.137 99.1133 165.137ZM107.539 163.514L108.951 173H106.426L106.303 171.295H105.418L105.271 173H102.717L103.971 163.514H107.539ZM106.232 169.613C106.107 168.539 105.982 167.213 105.857 165.635C105.607 167.447 105.451 168.773 105.389 169.613H106.232ZM113.674 163.514V165.412H112.209V173H109.742V165.412H108.283V163.514H113.674ZM114.236 163.514H118.35V165.412H116.703V167.211H118.244V169.016H116.703V171.102H118.514V173H114.236V163.514ZM123.066 166.824V168.752H121.279V166.824H123.066ZM123.066 171.066V173H121.279V171.066H123.066ZM130.93 171.383V173H125.721V171.646C127.264 169.123 128.18 167.562 128.469 166.965C128.762 166.363 128.908 165.895 128.908 165.559C128.908 165.301 128.863 165.109 128.773 164.984C128.688 164.855 128.555 164.791 128.375 164.791C128.195 164.791 128.061 164.861 127.971 165.002C127.885 165.143 127.842 165.422 127.842 165.84V166.742H125.721V166.396C125.721 165.865 125.748 165.447 125.803 165.143C125.857 164.834 125.992 164.531 126.207 164.234C126.422 163.938 126.701 163.713 127.045 163.561C127.389 163.408 127.801 163.332 128.281 163.332C129.223 163.332 129.934 163.566 130.414 164.035C130.898 164.5 131.141 165.09 131.141 165.805C131.141 166.348 131.004 166.922 130.73 167.527C130.461 168.133 129.662 169.418 128.334 171.383H130.93ZM136.297 167.627C136.656 167.748 136.924 167.947 137.1 168.225C137.275 168.498 137.363 169.143 137.363 170.158C137.363 170.912 137.277 171.498 137.105 171.916C136.934 172.33 136.637 172.646 136.215 172.865C135.793 173.08 135.252 173.188 134.592 173.188C133.842 173.188 133.252 173.062 132.822 172.812C132.396 172.559 132.115 172.25 131.979 171.887C131.846 171.52 131.779 170.885 131.779 169.982V169.232H134.146V170.773C134.146 171.184 134.17 171.445 134.217 171.559C134.268 171.668 134.377 171.723 134.545 171.723C134.729 171.723 134.85 171.652 134.908 171.512C134.967 171.371 134.996 171.004 134.996 170.41V169.754C134.996 169.391 134.955 169.125 134.873 168.957C134.791 168.789 134.67 168.68 134.51 168.629C134.35 168.574 134.039 168.543 133.578 168.535V167.158C134.141 167.158 134.488 167.137 134.621 167.094C134.754 167.051 134.85 166.957 134.908 166.812C134.967 166.668 134.996 166.441 134.996 166.133V165.605C134.996 165.273 134.961 165.055 134.891 164.949C134.824 164.844 134.719 164.791 134.574 164.791C134.41 164.791 134.297 164.848 134.234 164.961C134.176 165.07 134.146 165.307 134.146 165.67V166.449H131.779V165.641C131.779 164.734 131.986 164.123 132.4 163.807C132.814 163.486 133.473 163.326 134.375 163.326C135.504 163.326 136.27 163.547 136.672 163.988C137.074 164.43 137.275 165.043 137.275 165.828C137.275 166.359 137.203 166.744 137.059 166.982C136.914 167.217 136.66 167.432 136.297 167.627ZM141.113 168.295V169.93H138.002V168.295H141.113ZM145.402 163.514V173H143.035V167.914C143.035 167.18 143.018 166.738 142.982 166.59C142.947 166.441 142.85 166.33 142.689 166.256C142.533 166.178 142.182 166.139 141.635 166.139H141.4V165.031C142.545 164.785 143.414 164.279 144.008 163.514H145.402ZM151.426 171.383V173H146.217V171.646C147.76 169.123 148.676 167.562 148.965 166.965C149.258 166.363 149.404 165.895 149.404 165.559C149.404 165.301 149.359 165.109 149.27 164.984C149.184 164.855 149.051 164.791 148.871 164.791C148.691 164.791 148.557 164.861 148.467 165.002C148.381 165.143 148.338 165.422 148.338 165.84V166.742H146.217V166.396C146.217 165.865 146.244 165.447 146.299 165.143C146.354 164.834 146.488 164.531 146.703 164.234C146.918 163.938 147.197 163.713 147.541 163.561C147.885 163.408 148.297 163.332 148.777 163.332C149.719 163.332 150.43 163.566 150.91 164.035C151.395 164.5 151.637 165.09 151.637 165.805C151.637 166.348 151.5 166.922 151.227 167.527C150.957 168.133 150.158 169.418 148.83 171.383H151.426ZM155.246 168.295V169.93H152.135V168.295H155.246ZM160.988 171.383V173H155.779V171.646C157.322 169.123 158.238 167.562 158.527 166.965C158.82 166.363 158.967 165.895 158.967 165.559C158.967 165.301 158.922 165.109 158.832 164.984C158.746 164.855 158.613 164.791 158.434 164.791C158.254 164.791 158.119 164.861 158.029 165.002C157.943 165.143 157.9 165.422 157.9 165.84V166.742H155.779V166.396C155.779 165.865 155.807 165.447 155.861 165.143C155.916 164.834 156.051 164.531 156.266 164.234C156.48 163.938 156.76 163.713 157.104 163.561C157.447 163.408 157.859 163.332 158.34 163.332C159.281 163.332 159.992 163.566 160.473 164.035C160.957 164.5 161.199 165.09 161.199 165.805C161.199 166.348 161.062 166.922 160.789 167.527C160.52 168.133 159.721 169.418 158.393 171.383H160.988ZM167.492 166.725V169.889C167.492 170.607 167.453 171.131 167.375 171.459C167.297 171.787 167.135 172.094 166.889 172.379C166.643 172.664 166.346 172.869 165.998 172.994C165.65 173.119 165.262 173.182 164.832 173.182C164.266 173.182 163.795 173.117 163.42 172.988C163.045 172.855 162.746 172.65 162.523 172.373C162.301 172.096 162.143 171.805 162.049 171.5C161.955 171.191 161.908 170.703 161.908 170.035V166.725C161.908 165.854 161.982 165.201 162.131 164.768C162.283 164.334 162.582 163.986 163.027 163.725C163.477 163.463 164.02 163.332 164.656 163.332C165.176 163.332 165.641 163.424 166.051 163.607C166.461 163.787 166.768 164.008 166.971 164.27C167.174 164.531 167.311 164.826 167.381 165.154C167.455 165.482 167.492 166.006 167.492 166.725ZM165.125 165.928C165.125 165.424 165.1 165.109 165.049 164.984C165.002 164.855 164.889 164.791 164.709 164.791C164.533 164.791 164.416 164.859 164.357 164.996C164.303 165.129 164.275 165.439 164.275 165.928V170.557C164.275 171.107 164.301 171.439 164.352 171.553C164.406 171.666 164.521 171.723 164.697 171.723C164.873 171.723 164.988 171.656 165.043 171.523C165.098 171.391 165.125 171.092 165.125 170.627V165.928ZM173.445 171.383V173H168.236V171.646C169.779 169.123 170.695 167.562 170.984 166.965C171.277 166.363 171.424 165.895 171.424 165.559C171.424 165.301 171.379 165.109 171.289 164.984C171.203 164.855 171.07 164.791 170.891 164.791C170.711 164.791 170.576 164.861 170.486 165.002C170.4 165.143 170.357 165.422 170.357 165.84V166.742H168.236V166.396C168.236 165.865 168.264 165.447 168.318 165.143C168.373 164.834 168.508 164.531 168.723 164.234C168.938 163.938 169.217 163.713 169.561 163.561C169.904 163.408 170.316 163.332 170.797 163.332C171.738 163.332 172.449 163.566 172.93 164.035C173.414 164.5 173.656 165.09 173.656 165.805C173.656 166.348 173.52 166.922 173.246 167.527C172.977 168.133 172.178 169.418 170.85 171.383H173.445ZM178.812 167.627C179.172 167.748 179.439 167.947 179.615 168.225C179.791 168.498 179.879 169.143 179.879 170.158C179.879 170.912 179.793 171.498 179.621 171.916C179.449 172.33 179.152 172.646 178.73 172.865C178.309 173.08 177.768 173.188 177.107 173.188C176.357 173.188 175.768 173.062 175.338 172.812C174.912 172.559 174.631 172.25 174.494 171.887C174.361 171.52 174.295 170.885 174.295 169.982V169.232H176.662V170.773C176.662 171.184 176.686 171.445 176.732 171.559C176.783 171.668 176.893 171.723 177.061 171.723C177.244 171.723 177.365 171.652 177.424 171.512C177.482 171.371 177.512 171.004 177.512 170.41V169.754C177.512 169.391 177.471 169.125 177.389 168.957C177.307 168.789 177.186 168.68 177.025 168.629C176.865 168.574 176.555 168.543 176.094 168.535V167.158C176.656 167.158 177.004 167.137 177.137 167.094C177.27 167.051 177.365 166.957 177.424 166.812C177.482 166.668 177.512 166.441 177.512 166.133V165.605C177.512 165.273 177.477 165.055 177.406 164.949C177.34 164.844 177.234 164.791 177.09 164.791C176.926 164.791 176.812 164.848 176.75 164.961C176.691 165.07 176.662 165.307 176.662 165.67V166.449H174.295V165.641C174.295 164.734 174.502 164.123 174.916 163.807C175.33 163.486 175.988 163.326 176.891 163.326C178.02 163.326 178.785 163.547 179.188 163.988C179.59 164.43 179.791 165.043 179.791 165.828C179.791 166.359 179.719 166.744 179.574 166.982C179.43 167.217 179.176 167.432 178.812 167.627Z" fill="#FAFAFA"/>
</g>
<defs>
<clipPath id="clip0_833_6779">
<rect width="297.231" height="184" fill="white"/>
</clipPath>
</defs>
</svg>
