<svg width="52" height="127" viewBox="0 0 52 127" fill="none" xmlns="http://www.w3.org/2000/svg">
<path d="M51.5769 3.08194L51.5742 0.0731322L0.1535 0L0.117185 3.02398L51.5769 3.08194Z" fill="#263238"/>
<path d="M51.5573 26.0002L51.5395 22.9524L0.133969 22.9183L0.0976534 25.9423L51.5573 26.0002Z" fill="#263238"/>
<path d="M51.5495 30.7201L51.5468 27.7113L0.0871257 27.6534L0.105023 30.7012L51.5495 30.7201Z" fill="#263238"/>
<path d="M51.5066 44.574L51.5429 41.55L0.0832194 41.4921L0.101121 44.5399L51.5066 44.574Z" fill="#263238"/>
<path d="M51.4949 68.7922L51.516 65.7292L0.0714955 65.7103L0.0742155 68.7191L51.4949 68.7922Z" fill="#263238"/>
<path d="M51.5457 5.88013L51.5909 4.38005L0.131255 4.32211L0.14018 5.84602L51.5457 5.88013Z" fill="#263238"/>
<path d="M51.5652 8.92707L51.5563 7.40316L0.13558 7.33003L0.144529 8.85394L51.5652 8.92707Z" fill="#263238"/>
<path d="M51.5652 11.9367L51.5562 10.4128L0.150731 10.3787L0.105466 11.8788L51.5652 11.9367Z" fill="#263238"/>
<path d="M51.5261 60.7839L51.5172 59.26L0.0726374 59.2411L0.0664086 60.726L51.5261 60.7839Z" fill="#263238"/>
<path d="M51.4871 63.8084L51.5323 62.3083L0.0726374 62.2504L0.0664039 63.7353L51.4871 63.8084Z" fill="#263238"/>
<path d="M51.5691 14.9446L51.5753 13.4597L0.115606 13.4018L0.124555 14.9257L51.5691 14.9446Z" fill="#263238"/>
<path d="M51.5457 18.0082L51.5367 16.4843L0.116073 16.4111L0.124998 17.9351L51.5457 18.0082Z" fill="#263238"/>
<path d="M51.5417 48.2439L51.5328 46.72L0.0882624 46.7011L0.0820289 48.186L51.5417 48.2439Z" fill="#263238"/>
<path d="M51.5027 51.2684L51.5089 49.7835L0.0882624 49.7104L0.097211 51.2343L51.5027 51.2684Z" fill="#263238"/>
<path d="M51.5223 54.3154L51.5133 52.7915L0.0926355 52.7183L0.10156 54.2422L51.5223 54.3154Z" fill="#263238"/>
<path d="M51.5223 35.2681L51.5285 33.7832L0.107817 33.71L0.116742 35.234L51.5223 35.2681Z" fill="#263238"/>
<path d="M51.5223 38.727L51.5285 37.2421L0.107817 37.169L0.116747 38.6929L51.5223 38.727Z" fill="#263238"/>
<path d="M51.5496 21.0174L51.5406 19.4935L0.135137 19.4594L0.128909 20.9443L51.5496 21.0174Z" fill="#263238"/>
<path d="M51.4988 74.8098L51.496 71.801L0.0753751 71.7278L0.0542417 74.7908L51.4988 74.8098Z" fill="#263238"/>
<path d="M51.4831 97.7281L51.4804 94.7192L0.0597502 94.6461L0.0234347 97.6701L51.4831 97.7281Z" fill="#263238"/>
<path d="M51.4519 102.502L51.4882 99.4782L0.0285296 99.4202L0.0312495 102.429L51.4519 102.502Z" fill="#263238"/>
<path d="M51.4832 77.647L51.4742 76.1231L0.0687312 76.089L0.0625023 77.5739L51.4832 77.647Z" fill="#263238"/>
<path d="M51.4832 80.6563L51.4894 79.1714L0.0687312 79.0983L0.0776797 80.6222L51.4832 80.6563Z" fill="#263238"/>
<path d="M51.5027 83.7036L51.4937 82.1797L0.0340179 82.1217L0.0429711 83.6456L51.5027 83.7036Z" fill="#263238"/>
<path d="M51.5066 86.7129L51.4976 85.1889L0.0531061 85.17L0.0468727 86.6549L51.5066 86.7129Z" fill="#263238"/>
<path d="M51.4597 123.882L51.4508 122.358L0.00625495 122.339L0 123.824L51.4597 123.882Z" fill="#263238"/>
<path d="M51.4207 126.906L51.4659 125.406L0.00623113 125.348L0.0151797 126.872L51.4207 126.906Z" fill="#263238"/>
<path d="M51.4715 89.7359L51.4777 88.251L0.0570124 88.1779L0.0659656 89.7018L51.4715 89.7359Z" fill="#263238"/>
<path d="M51.4831 92.7847L51.4742 91.2608L0.0535173 91.1876L0.0234352 92.7267L51.4831 92.7847Z" fill="#263238"/>
<path d="M51.4519 115.439L51.4492 112.43L0.0284763 112.357L0.00736673 115.42L51.4519 115.439Z" fill="#263238"/>
<path d="M51.4636 120.197L51.4609 117.188L0.00120974 117.13L0.0190855 120.178L51.4636 120.197Z" fill="#263238"/>
<path d="M51.4597 107.486L51.4508 105.962L0.0301134 105.889L0.039062 107.413L51.4597 107.486Z" fill="#263238"/>
<path d="M51.4637 110.494L51.4547 108.97L0.0491999 108.936L0.0429664 110.421L51.4637 110.494Z" fill="#263238"/>
</svg>
