<svg width="85" height="20" viewBox="0 0 85 20" fill="none" xmlns="http://www.w3.org/2000/svg">
<path fill-rule="evenodd" clip-rule="evenodd" d="M8.5803 13.8941C7.93483 13.8941 7.31579 13.6377 6.85938 13.1813C6.40296 12.7249 6.14655 12.1058 6.14655 11.4604V0.265137H1.27905V11.4604C1.27905 15.4926 4.54806 18.7616 8.5803 18.7616H13.9345V13.8941H8.5803ZM23.1828 5.13263C22.6075 5.13263 22.0378 5.24594 21.5063 5.4661C20.9748 5.68625 20.4919 6.00893 20.0851 6.41572C19.6783 6.82251 19.3557 7.30544 19.1355 7.83694C18.9153 8.36844 18.802 8.93809 18.802 9.51338C18.802 10.0887 18.9153 10.6583 19.1355 11.1898C19.3557 11.7213 19.6783 12.2042 20.0851 12.611C20.4919 13.0178 20.9748 13.3405 21.5063 13.5607C22.0378 13.7808 22.6075 13.8941 23.1828 13.8941C24.3446 13.8941 25.4589 13.4326 26.2804 12.611C27.102 11.7895 27.5635 10.6752 27.5635 9.51338C27.5635 8.35153 27.102 7.23727 26.2804 6.41572C25.4589 5.59417 24.3446 5.13263 23.1828 5.13263ZM13.9345 9.51338C13.9345 4.40592 18.0753 0.265137 23.1828 0.265137C28.2902 0.265137 32.431 4.40592 32.431 9.51338C32.431 14.6208 28.2902 18.7616 23.1828 18.7616C18.0753 18.7616 13.9345 14.6208 13.9345 9.51338ZM75.7517 5.13263C74.5899 5.13263 73.4756 5.59417 72.6541 6.41572C71.8325 7.23727 71.371 8.35153 71.371 9.51338C71.371 10.6752 71.8325 11.7895 72.6541 12.611C73.4756 13.4326 74.5899 13.8941 75.7517 13.8941C76.9136 13.8941 78.0279 13.4326 78.8494 12.611C79.671 11.7895 80.1325 10.6752 80.1325 9.51338C80.1325 8.35153 79.671 7.23727 78.8494 6.41572C78.0279 5.59417 76.9136 5.13263 75.7517 5.13263ZM66.5035 9.51338C66.5035 4.40592 70.6443 0.265137 75.7517 0.265137C80.8592 0.265137 85 4.40592 85 9.51338C85 14.6208 80.8592 18.7616 75.7517 18.7616C70.6443 18.7616 66.5035 14.6208 66.5035 9.51338ZM42.6528 0.265137C37.5453 0.265137 33.4045 4.40592 33.4045 9.51338C33.4045 14.6208 37.5453 18.7616 42.6528 18.7616H56.2818C57.2402 18.7616 58.1645 18.6156 59.0338 18.345L61.636 19.7351L64.4436 14.4763C65.1568 13.1376 65.5299 11.644 65.53 10.1272V9.51338C65.53 4.40592 61.3892 0.265137 56.2818 0.265137H42.6528ZM60.6625 9.51338C60.6625 8.35153 60.201 7.23727 59.3794 6.41572C58.5579 5.59417 57.4436 5.13263 56.2818 5.13263H42.6528C42.0775 5.13263 41.5078 5.24594 40.9763 5.4661C40.4448 5.68625 39.9619 6.00893 39.5551 6.41572C39.1483 6.82251 38.8256 7.30544 38.6055 7.83694C38.3853 8.36844 38.272 8.93809 38.272 9.51338C38.272 10.0887 38.3853 10.6583 38.6055 11.1898C38.8256 11.7213 39.1483 12.2042 39.5551 12.611C39.9619 13.0178 40.4448 13.3405 40.9763 13.5607C41.5078 13.7808 42.0775 13.8941 42.6528 13.8941H56.2818C57.4377 13.8942 58.5469 13.4373 59.3674 12.6231C60.188 11.8089 60.6535 10.7034 60.6625 9.54745V9.51338Z" fill="#ADA4AA"/>
</svg>
