<svg width="113" height="24" viewBox="0 0 113 24" fill="none" xmlns="http://www.w3.org/2000/svg">
<path d="M18.7956 10.6967C18.4924 11.0017 18.2603 11.3699 18.1156 11.7749C17.971 12.1799 17.9175 12.6118 17.9588 13.0399L17.9444 13.0255C17.987 13.5294 17.919 14.0365 17.7453 14.5114C17.5716 14.9863 17.2964 15.4176 16.9389 15.7752C16.5813 16.1327 16.15 16.408 15.6751 16.5816C15.2002 16.7553 14.6931 16.8233 14.1892 16.7807L14.2036 16.7951C13.6009 16.739 12.9956 16.8701 12.47 17.1707C11.9446 17.4713 11.5246 17.9265 11.2674 18.4745C11.0102 19.0225 10.9282 19.6365 11.0327 20.2328C11.1372 20.829 11.4231 21.3786 11.8513 21.8064C12.2796 22.2342 12.8293 22.5196 13.4256 22.6235C14.022 22.7275 14.6359 22.6449 15.1836 22.3873C15.7314 22.1295 16.1863 21.7092 16.4864 21.1834C16.7864 20.6577 16.9171 20.0522 16.8604 19.4495L16.8756 19.4639C16.8331 18.9601 16.901 18.453 17.0747 17.978C17.2484 17.5031 17.5236 17.0718 17.8812 16.7142C18.2388 16.3567 18.67 16.0814 19.1449 15.9078C19.6199 15.7341 20.1269 15.6661 20.6308 15.7087L20.6156 15.6943C21.108 15.7385 21.6036 15.6578 22.0564 15.4596C22.5092 15.2613 22.9048 14.952 23.2062 14.5602C23.5076 14.1685 23.7054 13.7069 23.7809 13.2184C23.8565 12.7298 23.8076 12.2301 23.6386 11.7655C23.4696 11.3009 23.1861 10.8865 22.8144 10.5607C22.4426 10.2349 21.9946 10.0081 21.5119 9.90159C21.0292 9.79503 20.5273 9.81199 20.0529 9.95095C19.5785 10.09 19.1469 10.3465 18.798 10.6967H18.7956Z" fill="#ADA4AA"/>
<path d="M12.894 14.9091L12.8788 14.8947C13.3071 14.9378 13.7395 14.8853 14.1451 14.7408C14.5505 14.5963 14.9188 14.3636 15.2233 14.0593C15.5277 13.7551 15.7608 13.3869 15.9055 12.9816C16.0503 12.5762 16.1032 12.1438 16.0604 11.7155L16.0756 11.7299C16.0331 11.226 16.1011 10.7189 16.2747 10.244C16.4483 9.76909 16.7236 9.33781 17.0811 8.98021C17.4387 8.62269 17.87 8.34741 18.3449 8.17381C18.8199 8.0001 19.3269 7.93215 19.8308 7.97469L19.8156 7.96029C20.4184 8.01693 21.0239 7.88618 21.5497 7.58597C22.0755 7.28576 22.4959 6.83067 22.7535 6.28277C23.0111 5.73488 23.0934 5.12086 22.9892 4.52445C22.8851 3.92804 22.5995 3.3783 22.1713 2.95019C21.7432 2.52208 21.1935 2.23645 20.5971 2.13227C20.0007 2.02809 19.3867 2.11042 18.8387 2.36803C18.2908 2.62564 17.8358 3.046 17.5355 3.57177C17.2353 4.09753 17.1046 4.70311 17.1612 5.30589L17.1468 5.29069C17.1895 5.7946 17.1216 6.30175 16.948 6.77673C16.7744 7.25171 16.4991 7.68306 16.1416 8.04069C15.784 8.39821 15.3527 8.67349 14.8777 8.84709C14.4027 9.02069 13.8955 9.08853 13.3916 9.04589L13.406 9.06109C12.9778 9.01797 12.5452 9.07053 12.1398 9.21501C11.7343 9.35941 11.366 9.59221 11.0615 9.89645C10.7571 10.2007 10.524 10.5688 10.3792 10.9742C10.2345 11.3796 10.1816 11.812 10.2244 12.2403L10.21 12.2259C10.2524 12.7297 10.1843 13.2368 10.0107 13.7116C9.83691 14.1865 9.56171 14.6177 9.20419 14.9753C8.84663 15.3328 8.4154 15.608 7.94055 15.7817C7.46571 15.9554 6.95867 16.0235 6.45483 15.9811L6.46923 15.9955C5.86644 15.9388 5.26087 16.0696 4.7351 16.3698C4.20934 16.6701 3.78898 17.1251 3.53137 17.673C3.27375 18.2209 3.19142 18.8349 3.2956 19.4313C3.39979 20.0277 3.68542 20.5775 4.11352 21.0056C4.54163 21.4337 5.09138 21.7193 5.68779 21.8235C6.28419 21.9277 6.89822 21.8453 7.44611 21.5877C7.994 21.3301 8.4491 20.9098 8.74931 20.3841C9.04955 19.8582 9.18027 19.2527 9.12363 18.6499L9.13883 18.6643C9.09627 18.1604 9.16427 17.6533 9.33795 17.1784C9.51155 16.7035 9.78683 16.2722 10.1443 15.9146C10.5019 15.5571 10.9332 15.2818 11.4081 15.1082C11.8831 14.9345 12.3901 14.8665 12.894 14.9091Z" fill="#ADA4AA"/>
<path d="M7.53252 13.3033C7.83574 12.9983 8.06788 12.6301 8.21239 12.2251C8.35691 11.8201 8.41022 11.3881 8.36852 10.9601L8.38371 10.9745C8.34115 10.4705 8.40912 9.96317 8.58289 9.48813C8.75666 9.01309 9.03204 8.58173 9.3898 8.22413C9.74756 7.86655 10.179 7.59135 10.6541 7.41779C11.1292 7.24423 11.6365 7.17647 12.1405 7.21925L12.1253 7.20485C12.7279 7.26131 13.3332 7.13051 13.8588 6.83032C14.3843 6.53014 14.8044 6.07515 15.0619 5.52743C15.3193 4.97971 15.4016 4.36591 15.2974 3.76972C15.1932 3.17354 14.9076 2.624 14.4797 2.19605C14.0518 1.7681 13.5022 1.48256 12.906 1.37839C12.3099 1.2742 11.696 1.35646 11.1484 1.61391C10.6006 1.87137 10.1456 2.29151 9.84548 2.81703C9.54524 3.34255 9.41444 3.94787 9.47092 4.55045L9.45652 4.53605C9.49908 5.03993 9.43108 5.54703 9.2574 6.02194C9.08372 6.49685 8.80854 6.92814 8.45097 7.28571C8.09341 7.64327 7.66211 7.9185 7.1872 8.09213C6.71229 8.26581 6.2052 8.33381 5.70132 8.29125L5.71572 8.30565C5.22338 8.26149 4.72785 8.34237 4.27506 8.54069C3.82228 8.73901 3.42688 9.04845 3.12551 9.44029C2.82414 9.83205 2.62656 10.2937 2.55106 10.7821C2.47556 11.2707 2.52459 11.7704 2.69361 12.2349C2.86262 12.6994 3.14617 13.1137 3.51795 13.4395C3.88974 13.7653 4.33774 13.992 4.82044 14.0985C5.30314 14.205 5.80492 14.188 6.2793 14.049C6.75366 13.91 7.18527 13.6535 7.53411 13.3033H7.53252Z" fill="#ADA4AA"/>
<path d="M32.3142 5.32373H34.6902V16.8861H32.3142V5.32373Z" fill="#ADA4AA"/>
<path d="M36.0358 12.927C36.0325 12.0962 36.2758 11.2829 36.735 10.5904C37.1942 9.89792 37.8486 9.35728 38.6154 9.03704C39.3821 8.71672 40.2266 8.6312 41.0419 8.79128C41.8573 8.95136 42.6068 9.34976 43.1955 9.93616C43.7842 10.5225 44.1857 11.2704 44.349 12.0851C44.5124 12.8998 44.4302 13.7447 44.113 14.5127C43.7958 15.2806 43.2578 15.9373 42.5672 16.3992C41.8765 16.8612 41.0643 17.1078 40.2334 17.1078C39.6818 17.1142 39.1346 17.0104 38.6235 16.8027C38.1125 16.595 37.648 16.2876 37.2572 15.8984C36.8663 15.5091 36.557 15.0458 36.3474 14.5357C36.1376 14.0255 36.0317 13.4786 36.0358 12.927ZM42.055 12.927C42.045 12.5689 41.9298 12.2216 41.7236 11.9286C41.5174 11.6356 41.2294 11.4098 40.8956 11.2797C40.5618 11.1494 40.197 11.1205 39.8469 11.1965C39.4967 11.2725 39.1767 11.4499 38.9269 11.7068C38.6771 11.9636 38.5085 12.2884 38.4423 12.6406C38.3761 12.9926 38.415 13.3565 38.5545 13.6866C38.6939 14.0166 38.9275 14.2982 39.2261 14.4962C39.5247 14.6942 39.8751 14.7998 40.2334 14.7998C40.4787 14.8064 40.7228 14.762 40.9502 14.6695C41.1776 14.577 41.3834 14.4385 41.5545 14.2626C41.7256 14.0866 41.8585 13.877 41.9446 13.6472C42.0307 13.4174 42.0683 13.1722 42.055 12.927Z" fill="#ADA4AA"/>
<path d="M53.9005 8.96715V16.4871C53.9005 19.1479 51.8253 20.2727 49.7189 20.2727C48.9773 20.3283 48.2346 20.1784 47.5725 19.8398C46.9104 19.5011 46.3543 18.9866 45.9653 18.3527L47.9925 17.1807C48.156 17.5111 48.4166 17.7837 48.7392 17.962C49.0619 18.1403 49.4314 18.2158 49.7981 18.1783C50.0325 18.2108 50.2712 18.1902 50.4966 18.1179C50.7218 18.0457 50.9281 17.9237 51.0999 17.7611C51.2718 17.5983 51.4048 17.3991 51.4893 17.178C51.5737 16.957 51.6073 16.7198 51.5877 16.4839V15.7599C51.3094 16.1003 50.9554 16.3708 50.5537 16.5496C50.152 16.7284 49.7141 16.8106 49.2749 16.7895C48.2299 16.7566 47.2388 16.3183 46.5113 15.5675C45.7838 14.8167 45.377 13.8122 45.377 12.7667C45.377 11.7213 45.7838 10.7168 46.5113 9.96603C47.2388 9.21515 48.2299 8.77691 49.2749 8.74395C49.7141 8.72291 50.152 8.80507 50.5537 8.98387C50.9554 9.16267 51.3094 9.43315 51.5877 9.77355V8.96555L53.9005 8.96715ZM51.5885 12.7679C51.6045 12.3851 51.5054 12.0061 51.3042 11.6799C51.103 11.3537 50.8088 11.0952 50.4594 10.9377C50.1101 10.7801 49.7216 10.7307 49.3439 10.7959C48.9662 10.861 48.6167 11.0376 48.3402 11.3031C48.0638 11.5686 47.8732 11.9107 47.7928 12.2854C47.7125 12.6601 47.7461 13.0503 47.8894 13.4058C48.0327 13.7612 48.2791 14.0657 48.5969 14.2799C48.9146 14.4942 49.2893 14.6084 49.6725 14.6079C49.9222 14.6254 50.1726 14.5903 50.4079 14.5051C50.6432 14.4198 50.858 14.2861 51.0385 14.1128C51.219 13.9395 51.3612 13.7303 51.4559 13.4986C51.5506 13.267 51.5958 13.0181 51.5885 12.7679Z" fill="#ADA4AA"/>
<path d="M55.2461 12.927C55.2428 12.0962 55.4861 11.2829 55.9454 10.5904C56.4046 9.89792 57.059 9.35728 57.8257 9.03704C58.5924 8.71672 59.4369 8.6312 60.2522 8.79128C61.0676 8.95136 61.8171 9.34976 62.4058 9.93616C62.9946 10.5225 63.396 11.2704 63.5594 12.0851C63.7227 12.8998 63.6406 13.7447 63.3234 14.5127C63.0062 15.2806 62.4682 15.9373 61.7775 16.3992C61.0868 16.8612 60.2746 17.1078 59.4437 17.1078C58.8922 17.1142 58.3448 17.0104 57.8338 16.8027C57.3228 16.595 56.8583 16.2876 56.4675 15.8984C56.0766 15.5091 55.7674 15.0458 55.5577 14.5357C55.3479 14.0255 55.242 13.4786 55.2461 12.927ZM61.2653 12.927C61.2554 12.5689 61.1401 12.2216 60.9339 11.9286C60.7277 11.6356 60.4397 11.4098 60.1059 11.2797C59.7721 11.1494 59.4073 11.1205 59.0572 11.1965C58.707 11.2725 58.387 11.4499 58.1372 11.7068C57.8874 11.9636 57.7188 12.2884 57.6526 12.6406C57.5863 12.9926 57.6254 13.3565 57.7648 13.6866C57.9042 14.0166 58.1378 14.2982 58.4364 14.4962C58.735 14.6942 59.0854 14.7998 59.4437 14.7998C59.689 14.8064 59.9331 14.762 60.1605 14.6695C60.3879 14.577 60.5937 14.4385 60.7648 14.2626C60.9359 14.0866 61.0688 13.877 61.1549 13.6472C61.241 13.4174 61.2786 13.1722 61.2653 12.927Z" fill="#ADA4AA"/>
<path d="M64.7493 6.84503C64.7493 6.56307 64.8329 6.28745 64.9895 6.05302C65.1461 5.81858 65.3689 5.63585 65.6293 5.52796C65.8898 5.42005 66.1765 5.39182 66.453 5.44683C66.7295 5.50184 66.9836 5.63761 67.1829 5.83699C67.3823 6.03636 67.5181 6.29037 67.5731 6.56692C67.6281 6.84345 67.5998 7.13009 67.492 7.39059C67.3841 7.65108 67.2014 7.87373 66.9669 8.03039C66.7325 8.18703 66.4569 8.27064 66.1749 8.27064C65.798 8.26688 65.4375 8.11551 65.1709 7.84894C64.9045 7.58239 64.753 7.22196 64.7493 6.84503ZM64.9893 8.96743H67.3661V16.8874H64.9861L64.9893 8.96743Z" fill="#ADA4AA"/>
<path d="M77.6253 12.9272C77.6527 13.4507 77.5765 13.9743 77.4008 14.4682C77.2252 14.962 76.9537 15.4163 76.6018 15.8048C76.2501 16.1933 75.8249 16.5085 75.3509 16.7322C74.8768 16.9558 74.3633 17.0835 73.8397 17.108C73.3994 17.132 72.9593 17.0578 72.5512 16.8907C72.1431 16.7235 71.7775 16.4676 71.4805 16.1416V20.0544H69.1045V8.96722H71.4805V9.71122C71.7775 9.38546 72.1434 9.12978 72.5514 8.96282C72.9595 8.79578 73.3995 8.72162 73.8397 8.74562C74.3634 8.77002 74.8771 8.8977 75.3512 9.12138C75.8254 9.34506 76.2506 9.66026 76.6024 10.0489C76.9543 10.4375 77.2258 10.8919 77.4013 11.3859C77.5768 11.8799 77.653 12.4037 77.6253 12.9272ZM75.2493 12.9272C75.24 12.5566 75.1216 12.1969 74.9089 11.8931C74.6962 11.5895 74.3987 11.3552 74.0535 11.2199C73.7083 11.0844 73.3309 11.0538 72.9684 11.1319C72.6059 11.2099 72.2746 11.3931 72.0157 11.6585C71.7568 11.924 71.582 12.2599 71.5131 12.6243C71.4443 12.9886 71.4843 13.3651 71.6284 13.7067C71.7724 14.0484 72.0141 14.3399 72.3231 14.545C72.632 14.7499 72.9945 14.8593 73.3653 14.8592C73.6198 14.8706 73.8739 14.8279 74.1109 14.7342C74.3478 14.6405 74.5623 14.4977 74.7401 14.3153C74.918 14.1328 75.0553 13.9149 75.1431 13.6757C75.2308 13.4365 75.2671 13.1814 75.2493 12.9272Z" fill="#ADA4AA"/>
<path d="M84.9574 14.5107C84.9574 16.3323 83.3742 17.1083 81.6638 17.1083C80.9726 17.1708 80.2787 17.0248 79.6716 16.6887C79.0645 16.3527 78.5722 15.8423 78.2582 15.2235L80.3166 14.0515C80.3999 14.3375 80.5787 14.5864 80.8233 14.7564C81.0678 14.9264 81.3638 15.0075 81.6606 14.9859C82.2302 14.9859 82.5158 14.8115 82.5158 14.4955C82.5158 13.6235 78.619 14.0835 78.619 11.3435C78.619 9.61627 80.0766 8.74587 81.7238 8.74587C82.343 8.72627 82.9558 8.87315 83.499 9.17115C84.0422 9.46923 84.4958 9.90747 84.8118 10.4403L82.7846 11.5331C82.6958 11.3256 82.5478 11.1489 82.359 11.025C82.1702 10.9011 81.9494 10.8355 81.7238 10.8363C81.3118 10.8363 81.0582 10.9963 81.0582 11.2795C81.0614 12.1827 84.9574 11.5803 84.9574 14.5107Z" fill="#ADA4AA"/>
<path d="M93.6365 8.96729V16.8873H91.2605V16.1425C90.9861 16.4711 90.6381 16.7301 90.2445 16.8981C89.8509 17.0661 89.4237 17.1383 88.9965 17.1089C87.3965 17.1089 86.0365 15.9689 86.0365 13.8289V8.96729H88.4125V13.4809C88.3925 13.6695 88.4141 13.8602 88.4757 14.0397C88.5365 14.2192 88.6365 14.3832 88.7677 14.5202C88.8989 14.6573 89.0581 14.7641 89.2349 14.8333C89.4109 14.9025 89.6005 14.9324 89.7901 14.9209C90.6613 14.9209 91.2629 14.4145 91.2629 13.2897V8.96969L93.6365 8.96729Z" fill="#ADA4AA"/>
<path d="M107.26 12.0239V16.8863H104.884V12.2295C104.884 11.4375 104.504 10.9311 103.744 10.9311C102.952 10.9311 102.508 11.4855 102.508 12.4199V16.8863H100.133V12.2295C100.133 11.4375 99.7533 10.9311 98.9925 10.9311C98.2005 10.9311 97.7573 11.4855 97.7573 12.4199V16.8863H95.3813V8.96629H97.7573V9.69429C98.0037 9.37133 98.3269 9.11517 98.6973 8.94933C99.0685 8.78341 99.4749 8.71309 99.8797 8.74469C100.286 8.72477 100.691 8.81061 101.055 8.99373C101.418 9.17677 101.728 9.45101 101.954 9.78949C102.217 9.43533 102.566 9.15373 102.968 8.97101C103.369 8.78829 103.811 8.71045 104.251 8.74469C106.069 8.74549 107.26 10.0439 107.26 12.0239Z" fill="#ADA4AA"/>
<path d="M109.27 8.91849C110.244 8.91849 111.033 8.12905 111.033 7.15529C111.033 6.1815 110.244 5.39209 109.27 5.39209C108.296 5.39209 107.507 6.1815 107.507 7.15529C107.507 8.12905 108.296 8.91849 109.27 8.91849Z" fill="#ADA4AA"/>
</svg>
