<svg width="336" height="211" viewBox="0 0 336 211" fill="none" xmlns="http://www.w3.org/2000/svg">
<rect width="336" height="211" transform="matrix(-1 0 0 -1 336 211)" fill="url(#paint0_linear_795_9831)" fill-opacity="0.5"/>
<rect x="96" y="86" width="144" height="38.6265" rx="19.3133" fill="#FEFCFD"/>
<path d="M132.912 110.813L128.384 99.6133H130.384L133.92 108.685H133.216L136.784 99.6133H138.752L134.192 110.813H132.912ZM140.133 110.813V103.133H141.893V110.813H140.133ZM141.013 101.725C140.714 101.725 140.463 101.624 140.261 101.421C140.069 101.219 139.973 100.968 139.973 100.669C139.973 100.371 140.069 100.12 140.261 99.9173C140.463 99.7146 140.714 99.6133 141.013 99.6133C141.322 99.6133 141.573 99.7146 141.765 99.9173C141.957 100.12 142.053 100.371 142.053 100.669C142.053 100.968 141.957 101.219 141.765 101.421C141.573 101.624 141.322 101.725 141.013 101.725ZM147.435 110.973C146.667 110.973 145.973 110.803 145.355 110.461C144.747 110.109 144.261 109.629 143.899 109.021C143.547 108.413 143.371 107.731 143.371 106.973C143.371 106.216 143.547 105.539 143.899 104.941C144.251 104.333 144.725 103.853 145.323 103.501C145.931 103.149 146.603 102.973 147.339 102.973C148.053 102.973 148.683 103.139 149.227 103.469C149.781 103.8 150.213 104.253 150.523 104.829C150.843 105.405 151.003 106.061 151.003 106.797C151.003 106.925 150.992 107.059 150.971 107.197C150.96 107.325 150.939 107.469 150.907 107.629H144.603V106.189H149.995L149.339 106.765C149.317 106.296 149.227 105.901 149.067 105.581C148.907 105.261 148.677 105.016 148.379 104.845C148.091 104.675 147.733 104.589 147.307 104.589C146.859 104.589 146.469 104.685 146.139 104.877C145.808 105.069 145.552 105.341 145.371 105.693C145.189 106.035 145.099 106.445 145.099 106.925C145.099 107.405 145.195 107.827 145.387 108.189C145.579 108.552 145.851 108.835 146.203 109.037C146.555 109.229 146.96 109.325 147.419 109.325C147.813 109.325 148.176 109.256 148.507 109.117C148.848 108.979 149.136 108.776 149.371 108.509L150.491 109.645C150.117 110.083 149.664 110.413 149.131 110.637C148.597 110.861 148.032 110.973 147.435 110.973ZM154.56 110.813L151.472 103.133H153.296L155.376 108.717L154.832 108.733L156.864 103.133H157.888L159.92 108.733L159.376 108.717L161.456 103.133H163.28L160.192 110.813H159.168L157.088 105.501H157.664L155.584 110.813H154.56ZM167.825 110.813V99.6133H169.665V110.813H167.825ZM169.089 110.813V109.133H175.361V110.813H169.089ZM169.089 105.901V104.285H174.817V105.901H169.089ZM169.089 101.293V99.6133H175.281V101.293H169.089ZM179.615 110.813L176.111 103.133H178.063L180.735 109.389H179.583L182.271 103.133H184.143L180.639 110.813H179.615ZM188.482 110.973C187.714 110.973 187.02 110.803 186.402 110.461C185.794 110.109 185.308 109.629 184.946 109.021C184.594 108.413 184.418 107.731 184.418 106.973C184.418 106.216 184.594 105.539 184.946 104.941C185.298 104.333 185.772 103.853 186.37 103.501C186.978 103.149 187.65 102.973 188.386 102.973C189.1 102.973 189.73 103.139 190.274 103.469C190.828 103.8 191.26 104.253 191.57 104.829C191.89 105.405 192.05 106.061 192.05 106.797C192.05 106.925 192.039 107.059 192.017 107.197C192.007 107.325 191.986 107.469 191.954 107.629H185.65V106.189H191.042L190.386 106.765C190.364 106.296 190.274 105.901 190.114 105.581C189.954 105.261 189.724 105.016 189.426 104.845C189.138 104.675 188.78 104.589 188.354 104.589C187.906 104.589 187.516 104.685 187.186 104.877C186.855 105.069 186.599 105.341 186.418 105.693C186.236 106.035 186.146 106.445 186.146 106.925C186.146 107.405 186.242 107.827 186.434 108.189C186.626 108.552 186.898 108.835 187.25 109.037C187.602 109.229 188.007 109.325 188.466 109.325C188.86 109.325 189.223 109.256 189.554 109.117C189.895 108.979 190.183 108.776 190.418 108.509L191.538 109.645C191.164 110.083 190.711 110.413 190.178 110.637C189.644 110.861 189.079 110.973 188.482 110.973ZM198.724 110.813V106.381C198.724 105.869 198.559 105.448 198.228 105.117C197.908 104.787 197.492 104.621 196.98 104.621C196.639 104.621 196.335 104.696 196.068 104.845C195.802 104.995 195.594 105.203 195.444 105.469C195.295 105.736 195.22 106.04 195.22 106.381L194.532 105.997C194.532 105.411 194.66 104.893 194.916 104.445C195.172 103.987 195.524 103.629 195.972 103.373C196.431 103.107 196.943 102.973 197.508 102.973C198.084 102.973 198.596 103.123 199.044 103.421C199.492 103.709 199.844 104.088 200.1 104.557C200.356 105.016 200.484 105.496 200.484 105.997V110.813H198.724ZM193.46 110.813V103.133H195.22V110.813H193.46ZM203.347 110.813V99.9333H205.107V110.813H203.347ZM201.507 104.733V103.133H206.947V104.733H201.507Z" fill="#1A0313"/>
<defs>
<linearGradient id="paint0_linear_795_9831" x1="228" y1="105" x2="21.5" y2="105" gradientUnits="userSpaceOnUse">
<stop stop-color="#100200"/>
<stop offset="0.769738" stop-color="#100200" stop-opacity="0.07"/>
</linearGradient>
</defs>
</svg>
